<mxfile host="app.diagrams.net" modified="2021-03-02T10:59:08.024Z" agent="5.0 (X11)" etag="8WNg6yJPK8uPSgRIUKOI" version="14.4.3" type="github">
  <diagram id="k8PTkc1Zzn6vZ5VbIvwg" name="Page-1">
    <mxGraphModel dx="2421" dy="2115" grid="1" gridSize="10" guides="1" tooltips="1" connect="1" arrows="1" fold="1" page="1" pageScale="1" pageWidth="827" pageHeight="1169" math="0" shadow="0">
      <root>
        <mxCell id="0" />
        <mxCell id="1" parent="0" />
        <mxCell id="HfbvIJwxYoeoFV3w_FML-7" value="" style="shape=hexagon;perimeter=hexagonPerimeter2;whiteSpace=wrap;html=1;fixedSize=1;" parent="1" vertex="1">
          <mxGeometry x="-800" y="-1100" width="930" height="570" as="geometry" />
        </mxCell>
        <mxCell id="fznONzR9aVCN1lghw0JL-4" value="" style="shape=image;verticalLabelPosition=bottom;labelBackgroundColor=#ffffff;verticalAlign=top;aspect=fixed;imageAspect=0;image=data:image/png,iVBORw0KGgoAAAANSUhEUgAABCkAAAL0CAMAAAAWWJ2eAAADAFBMVEUAAAAAADMAAGYAAJkAAMwAAP8AMwAAMzMAM2YAM5kAM8wAM/8AZgAAZjMAZmYAZpkAZswAZv8AmQAAmTMAmWYAmZkAmcwAmf8AzAAAzDMAzGYAzJkAzMwAzP8A/wAA/zMA/2YA/5kA/8wA//8zAAAzADMzAGYzAJkzAMwzAP8zMwAzMzMzM2YzM5kzM8wzM/8zZgAzZjMzZmYzZpkzZswzZv8zmQAzmTMzmWYzmZkzmcwzmf8zzAAzzDMzzGYzzJkzzMwzzP8z/wAz/zMz/2Yz/5kz/8wz//9mAABmADNmAGZmAJlmAMxmAP9mMwBmMzNmM2ZmM5lmM8xmM/9mZgBmZjNmZmZmZplmZsxmZv9mmQBmmTNmmWZmmZlmmcxmmf9mzABmzDNmzGZmzJlmzMxmzP9m/wBm/zNm/2Zm/5lm/8xm//+ZAACZADOZAGaZAJmZAMyZAP+ZMwCZMzOZM2aZM5mZM8yZM/+ZZgCZZjOZZmaZZpmZZsyZZv+ZmQCZmTOZmWaZmZmZmcyZmf+ZzACZzDOZzGaZzJmZzMyZzP+Z/wCZ/zOZ/2aZ/5mZ/8yZ///MAADMADPMAGbMAJnMAMzMAP/MMwDMMzPMM2bMM5nMM8zMM//MZgDMZjPMZmbMZpnMZszMZv/MmQDMmTPMmWbMmZnMmczMmf/MzADMzDPMzGbMzJnMzMzMzP/M/wDM/zPM/2bM/5nM/8zM////AAD/ADP/AGb/AJn/AMz/AP//MwD/MzP/M2b/M5n/M8z/M///ZgD/ZjP/Zmb/Zpn/Zsz/Zv//mQD/mTP/mWb/mZn/mcz/mf//zAD/zDP/zGb/zJn/zMz/zP///wD//zP//2b//5n//8z///8AAABdXV0ZGRlpaWk+Pj5bW1swMDBcXFxGRkYKCgpDQ0MeHh5YWFgHBwcMDAwyMjIJCQloaGhRUVFZWVkqKioYGBgsLCwlJSVvb28WFhYxMTFVVVUbGxtkZGQNDQ1ubm4vLy9BQUE1NTVycnJOTk5hYWFxcXE2Njap8OK9AAAA2XRSTlP///////////////////////////////////////////////////////////////////////////////////////////////////////////////////////////////////////////////////////////////////////////////////////////////////////////////////////////////////////////////////////////////////////////////////////////////8A9EGGvAAAAAlwSFlzAAAOxAAADsQBlSsOGwAAIABJREFUeJzsvU3W9KiuLuhGnRpAtap1JuC1ag8i58C5u3tbOQ3ubudMlJ2cjKdTBiQQNubP4MARPOv73ohw2Bg7rAdJCGnZJiYmJlJYPt2BiYmJF2AyxcTERBqTKSYmJtKYTDExMZHGZIqJiYk0xmIK2JGxS2qfiYmJxhiGKTQDSNhAmk/qj3mzb9XkAHonu8vExMRzGIYppMameEF9AoIEKUBK/Q74Lt+PDPVJEelv3IyJD2MUplCMwJlCak1Cv5j3Upp3v8EUTsMC85H+G8IE5Ai2y8REVwzKFCBQCEDiH6NVbL/CFFrDAqVcbcgbVsXyNCy1yzTGJvpjFKbQTz8YGkCJIFnwmAJ+gym09iQ2pAHUI0i/0l9Kq11Mpph4AMQUYLRZYxibFzXEPyaSUpL/ktRt0rY3cmZSR3/AMjcag2MKodUtwxCaOgVo9WoyxcRTIKagkdw8e/iunVBiO1b6T99L2iF5wl+YJGUqlPtdjEVCXhv6pdBAmZjoC8sU6BIwI5UevEQLdxk96uinVGcRQg4v7FzFMi9aOB87/UnDMlPGVsf7KQ1rYgQYptifTGFGqw3VXAFK573NFLpF0lWUzoyDYIfH+2w/mZG5si1ylmzkHtC9vtttknz7Ep4IxYiRqWFNDAPLFJIxBeoA0IIpyKw2TCFRT0kFT+GQyv8kz8TsJ+sFzTs22JimCRDoHgAp798NxkBgbrq57ac+thN/cC+TVH4S9kcPiBxow0G/Sz4bjimUYGAYA4ndbesDjAvfKhNS0vSFuD6G+u3OnEMXFHZhtRcBaD9VdBt50zCFnYeB2y4BnOGReDcAJ3we07Ce81BPfAywrssiaIhYcatcl9OPL5b9EVyMKK4pOUGmMI8Svtp5h9uDmxYGQbN8WpyNB+5afi/PGB8SUbitTrETVHXotwv0wqkHG+91c5rBstlmpzKMLZZgIKsRuD/JU5081LKlh3piWMhV/eLLih9o47KcmMJwB1GFuB68NXg8RWhO4jZTGHEl5yCJRVh+0ye77A8Kt4tg1EJd55MFp51I5+9Q71poWCyATApwtyRyHAQ+Z2pY+kzCeKjFDOisg3LDN5yK7qJEWqy6bfM7E1GoR/fEFMQm62KuLaFV9I28snqJ8d6jI2+7kPissfJiu41bNLO73H6q67b7v1F7dy19EzYFG1ofaA9EQ8muzxjXsKQOcnXai9Te6Qaell+AUAPwsqwr0YPa0M5zpEQ5qevXg/UUFneaM1MQQxBjQPwan4jRbK2qhFkGcM6QYIS7Xg1or2EBMoXTVYhDg528MfGBZ7IGk1pl18RD/SMwqvqustOYvDSTEzBjfkrXr4dY7dvVvT0zBdAG+4bvfsbpDlg32KMoOuX1vs2Fuy18DWtLaVj1xliIk1p4qH8Eu+ys/NUOuy2axh+gm1YBy4qnkEylODOFsOy3oKfC2/8EnymA4WaHD/gE/YyJkK6SsaWkPeuZ9uynBh7qr0PYNpUkOytK03ohQ+WKwUqHJHT9G7Cc4M12nJjCKkzbYs2PmObkfcekualgJ+in5kwRvaIh0fVhzZzzttg3i5N+GhBmAOFkzby5cFOIYk1DOHmL6/r1kCv22hf8E1MslimIDy8J0ezP3vtPVjP5cKJ2EZBYdaIr1mmoFE0N68txNYgy0QnInIVYSnUKYFZMXNevhVCtGhLwTaY8pohcELsFwcm4+/CEorOEcAm8fSreQMt+pzSsijPFpkg+oxV9AlIIM1uh1hZtejWCAQghgO0F+ivYVYdFBvYBpo7rN0zm1Kol445UIQoU4aiPdqdwPcGu7DtrGRSMHRp6SR2MwWF0IlHMFCLmjnG9PT9NTZ6vBP/cOUUgCLqhVnRsq5GwfUrD+nqu0BFEeqAG7WfY/2BY4brCRsKgdxBazZb7y4pzEId9UKDJCrFaOSiBl3ro3blhP4thB320cwtgT1TLan5VmKhJ1YQnrVFdvw6o5ZjZDF9DaMcUwae2qrt+E3H+aSnMZ2m+0/q5rSayBg0vv+RkX08VZrjGZ30Xwl1tIIVAbFaMBVkTvvvB24cIQq7EGLQfGgy4Wbo51NW0urKeEBHsx6qJUf3JVyOiun4VbPs5TLEypsB3IqbmxJmiha0f3dL08W2pFX1Gw7pzP1I9/m6uwNFUriSedr2DFgOUYhRilChwSgTbR0dTmNAr0iRwP6KGg6ZBvIOv5L0wr+pYxSOaXaQnidERvArCXUEJUyyFTBH69vaz1Yl/WGPRdlsyRZN+BwymZqdIstAXM4U/WgNbIWUEhJY4kMgbWnHuCLePOdp7sDyd3p3LTZAI1ox07sHVHKuD3vRW0ZkpWE82TgUK0XgKikXNsz5C395+uKJM0Vj0WrJSOBaqrq14s91UrE5a0Zg4jp82bEGLi/EjsBUOnn3g76NFyHcg4H7CBigRceBH594AF8aEXdr/yo1IyZfE6AhehcXGZ4vT2TJiNPOYIvwU3WeKyMbCxlPBGBeBjkXniB/XlzdbIK5hfS9VgC8GNh5CfSHlupIAcTPevnj7bMzBR1g85wYRB63BtNSg5Uwy+TM+TDR7jOz6OkVrpiC+JA0qyhSndR+Zs6R9mCK31RznPM154Y6nQy7Ole5k9mFdmOKU8K7RCX6KKXwHgBNeJY2CUQB5EDw3hbfPxicFqHEUdors9twUYDUQfVar8psu0TTK4lk/1Lf2fgq0qojD2O/NmAKdOce1pJcBZvglvrZjCj98Itmqlng9tYWfzPf0BlcrbCo5jf1GH2KXiUZVlBcwxbn/GedxJpx3UKKNb2UKcXRT0IV6tvpiZRuDG8R5HxbK7RoXZjc/whtPYiVQonPAGh9sLgZJqTdTmAsHp+QwAhT8ptBEkDGMXIB5rEMNmMImg0SpZtneIq1aguNVBjUDONAKbYlMgRv9woROyQh3rgpP2mIhf0LyVNK67MKHNL0bw8NnCiaQnAWIQARzU8B2YgpxniRQzxrxjLD+zVXfT+bBNNYGOTNWt9FII5ziKZqvJ93PKoW1o8CdQKooM1pFz+InhGR0krlCrFA2uJqr1zdvLHklBMZJvj+wkZTXDjMpN22qTbVqXJpMCxtWt8CsdeaQDaVlaKao0bBYlUHgapb7HtOd2lX2LJt/9G58KVXQwA7e6L8xk0FYphCwm/FqRxXpIA/7bHqO1G9cHSaIA6QWLWE0DT24Wcem5OdeV+7b0MfAIdiqYc4LB8kXC4uLMzDh5btnrjrP8/aDHdbZO6kFnJhCSJcUIuTrV3GvLiH+kSmk5Ezh6g3aLJ9SukOEL2Sh63ucKSo1LEucUlcECmpY6jZjFUKdN51KMfLChNTUbzEF6gXgxTsomPlSMJGY+6iq47h37QCJQ5z2caGdrAmUckUwQkm7+Yih3Cvq8J57ECdSmCtAGEeFYO12WiLGsJZoLTIzk815pj+UM9oWpzEF70wZcp2ZljQCk5lWXrWqo+3XdbVc4lUZpHLFyA2U+leyD65UKVsyDMFTXW3MQGFj7hvqYSh55bWGZb/yqgxKm2VCJ6yi7OZIkuY8An8SVDO239Qpdo7QOar0e88bIHUIlfUkLCYKygRaMecj7aPXgixe7ghYKARz0QbIaj7aAM791CbzIDW2szk14OZh6U3vFWIHrPk/OCT2vV73IddT7kAQrFaooDJCvk6hx7YIU6hVsSqZEFKFX2XQ07S1FSjxjfVtsAGay+dHmAJoWHcalStZYG6VSV5J+5/b3O+ycBogSv+2bUyfchoW5w6qKga0zU8H/GNMsW3nYc1+cXx/dmxF78tRJyTevzp1qCe2CUcPvVad++fNTpiTIgpvLan5S9OP0nKx28OO+6Zyx8YkZKMclupoebi5rgWVvBTAzV4nqgxGUjR5h0BYB6p34QW0qaCGpewB9LKCuSuKNgyDoi7gjMEgbyoNy7onjW+G1CckAlvcfBNHDYv0K2Z9XJ4qcFUTT8OmtEjo+u1OmHeaSFkNhLfq3INYxUlOrdlMZUu3jaYy2TdciD3itvsIz26IXUCq/4Gue9vzjg+1ePjsxNkChdiVGBPWAnMaFsSZAoyGRb7Zg4ZFOfRoylhwDYurWCcN68LUKb4PE41hF6++7bfwM9nwp01GxnOOw+N3fEqZ7ua9bXijINT0pUGS3ahtTje1LidFzmMKsMXHUbVyGhZcqViakKXiZKtT0PZwn65VSV/DCpBm4PQTn4CmivcRheenSJtbNbAid9h62Tr3WNCf2EMeblpXBrrFFB6kc8J6J+K6DI38bLv0CYv3iLXNHBWJTpV33duedfhEX+iiep/uRDnY3MfZyG/zaIXHt2v1+GKK4Ko/IZUetFZ/r/vAj8/WsELCnNCwThx9E8GmE2w7MZGAi9G8ks8gIIzIzqHNp0+JZ/lAF9bKCOwo3MLjOhQoQeXNnm5I9E57elWFhgX3NayJn0dxNPcFR0QJ4+IhdQPsZQcuYMQnUsochDj7Y0vwvIYVvNWXFH7VoXDTQff0xEQBkCmu1QH+Pqo5hHeLDoF8nzLocXIVsaG4uM3k4THXSomKFTSL/N0NSRR1NMYeMuCPnZgoAdU6v/remwLIlz4rLLogZlTC8vt6OFaw3MiBlmvbjRwdmEzIwumgcOM0AVLcfePClddNy5saVjXsSQM8pZ6N6qFi4mmkmaKYJfixLBozuMeN51dp1JEK1PdnSEPbQ1MX8ZYOGta1wbTxfUo7vKELN0M17AtVl8bVybJhRus5zkgsEmgdxFR4nsCNYXlDpoi1ENaVcwEuqij8fX3TV45S++2dluNfFHMnHSAj0nxzDiTOyU9RhTCpnXABBq2rWJfzuknKyyTccROdABLLt5ul53XPQpop7qnxKigp9v1Nd0KXpuMzC5UKlnYXiCU2d3urvLC/gOR87vqWCwC4AhtMj+y5z6nZjgmXRtcqaG2kXYUgY5w/EhRPrwIXI2h/wLqcl3SlcWaKgyDcvx3HWbvrT8Ut+23JRk2nmKK2XWUwRX+je3pQtGfPPNXAFwewtZLpJI79CvpWQ4XE2V9LVQXjdcJ2eVtDqtJguHDm7Q9icRCBYQq+BdcruFYrOuj1KiHON0bSA6XJjHwVpa2evrtlL+H68Joz5zT/cabYWP4FvlYyIzH0I0sr84HL2LPFadXDdtculQPE9ZTX/l0ZV5yYAhc4sQ2F3Tt1yW/gyBQsm9fdpg/9bsIUx5H6voYVU3wa2mKHqNKHmMLlefbSL0SLTYjz/p8DnN7kHqh9AUPRnTgtBvchixLdBJjiKHEFrYUQZwqJtMfjD4H/2U5/3NeyP1OYHFwNWrUNeJ+kLx5wuqbqpgF8O+eh8c4mpVwvEkMfdttYteAHuheFtuDvNTGQVuEKmFxDFCxU+zhTUKUFtxkCf479MX+OI3IbP8WJKdIZYkpa9z4dmWJ/WOtnAY5Ow+eZQjlivGzU1JWM8rkdCvqWoNLPdwFo2FYdRNbthPzH7ePWx51R9EgNbVyx3oECcnJJlbTufTowhYpG0NUKpFWc3LuDsnX6c7yPhzt9s985UIYk1r9IlKUJMsVHZ0obOxmUzzAWSdQbGQqFQbZaEZj7kG0EzrXgfTiMdECvqdMwSmFxo3wHITp4ND+gUzTpd2MXSNb5V0wweS6sl8MU7ctffBp3XHA3UaCZ5ibQy4qnaOhoC7RuXhJ9AFP7Az8alojTy1v9FPUP14GSG7tik1htqZwtWWh7EKaQeTr661BkwmZSRUaMprxpciVmHbUBstkaYi5v/Yb/AfN/a8MI7AZIhI+2sWlOcx9tjbEjU9iTpptx6hh99jXDp+c+pOeaTDDFypgC37Uv05mAiYN76FzPnMYgP80u7p9Fl7ju47oV5RC+YUCmQq79gmAAyAYS+cBm91U6uaoZQAl+DXNEE/LWdzn+5U0NK6G/bXkalot6sbwa583uIuFiqYqYYvkUUzzqRigPdKpHnuAXH5FeISb3R6Au4OiwPCq8R7QykE5KKWyefF0Mg1JXbtsWWXV+R54TGtbdDDmx74Al7kfFAdhttPm4dSkbSd9TFv+PMsXiRV2ucT8Fj6eQtOlZ6+NZb2MsCKoxKgyqnAjZdH4KEGtS4kMHuiMujzPPPpoWV5WBpKTktZpUhN0Qztvvmq5GTAkSayKcJdFyUsUCVkNMoi0mMac/YCEgtMWkuzkppuhPFDbYUvDSvYiMGM0v9Gge8JBTpGqaPYMqMjLZWJ04ky3OO14chLOAWMucxlMaRzerUtN+3vgq6bDLpquR0LBimky8WbysyHklZwpXB4g0LFtYRFK5MZsa3KQKL7+kViCRxyJ6iVnS07qPx2ZJb3iMb+MJNUbW8a1IHlaaHQ84sr64bF3vJyUdHOyeW7vHi5nyQy6aDraWi5imYlLz1GlY8dZJwwJBGpY8aFiWO2wJMeFqL5piLIUX1BBUCxw5YbmI0cRKfMe1pJ0K+h4h19EXrd5E9Uq75H2JVjCOSMwVwnuHFGOzc+IZtl9HGr9q+gZimoqbn8iii2wNizyVptIg6k2khqDnQtAGrHdqG8cdLvv9gBAa60E6t4Pk39kHeGXlv3lJ3wcK+hYviuqFjj9HNREmKcar93E4ttEFmbXWp9abLb07dbNBv/M0lUuWjNNn+MaijUWHB3tlxUoebyjEiPcJotAJbKSL+ANnTEhhMqjoDyx+QnDLvf8KsVF4QvNjp55U2h4KKfvjUG3w6tMdmIz6fnPQMl30qenWTdK2650LNKywilWmYV3/Oj00rFz41yUuBim31Ytp67/q/KnbkIFu2s2d0mQJqvbmsDMec0RIxq8fXoHLRb3W5a1ZhNOp8/pd0mJiQy12U/mc+CpUILkO/TpeiiIn/FMFfUdBH66AO3Sb0EcO0S658hb0O1zq7IcgIfNR1q9wCJ6lJU9Qi+EP96AZ8qS/yUCF5Dr0Ug3LUTAQvLBO511AerqhGPfctfHfoDIuTrBYa3wjwVcnCVd6/K2skUE0lol8DSuUKvTqGEUKermo33qoQnIt8jveF/lRxUmiAJ2ewKSNXQvzSw2XiuoSsY6qiS52B4I6KNyLcpVRJbCubZzXlxQBIWlKP8+6dzMaVWe/7FXzRyJXwzpLxOVhpFK51k04pmgaXGza/bhlnqkmxQv6Yo5YDEnVlyZ0HoysGyaz119/HJeCrothqFR99gZIYfJp+Jd2d4FWlAzqmMJEB2LQjwS7DCEoMqE+xb6sxscEQ541LLfozcdrNawPQYe6Be+NWZGUkA14U/xEOJePWsh2eQd8urzr64neqzqmEMQPyBQC4FKnCB3f5yn+lGyA5UppA6/lFVOEjgf/tVGvvoApZIIL1AR87Hvx2ew4eSClP5iGM+W/kmw9yU3jI+HTrNQpaCGGDfoxr5nRmb2YokejOeclDQv/CQlgl8cedp1MkY+sgMrYJMLNxXwPAacG5XIqCpA3QWJv041gCkSMDRqu9A0a5kmmaDlZ0aypMnBbzKx7xTUpubbYV2lYrZAdeA2v0Bxi0LW4ta/Su5DsiVS8VfdTd8ZcOr1zAqSZotkD/THRQPehZKvZ0G9x3jXcQJ9e9Wj1KUBJZjl4feoqQcUA3aaiQE49n3bfdRvjmo8zRe9TfQrhqY9k2GJDFatZSx+ALFQTclLWDw2qG2p9DqUXtCsg92U5Nk/aPc/Qg0zRoc3WmEyRhQq599SK11271SlQVEuZclPccl+WYzGe/ZkiNksa+lTX4mgqxQUuVKzHzvQKQJXfgR3VIfqxL+SyeObH1ZqZOOqO4ojNnnyEKQ7b+MKnpNSwiCZcVIUfXyEaz3k0X3E7gqheVYqLzCrG4w8DHFHoa69dLXd/Pe4nmeIy1ii4ayrXrAkaF2A/ukNeIRoZTFF4HZf3sqiV3tBBJiIrCvvGWjG95v2F3s2VMcVaUtfriPJkuwdE7v0nmCL4cHs5ujeezR9cwDjLIAk26yal9e5+JS2QtsU8r0Xqqijf1bZZvhyON0Fg3XCNcxDyISL5jmty178Hq5meA53GebU+zVup8G8Uq1T4KFOcHtqwPaJZgJjCLShBjtCJ/E00KGXz5xkkgQlKqHHfYCHdBOXKxFU2veRrFGhYfBVu4EtzFdJWZbMrVPDKmnT3NuAccm3CsG3/hB9DcE/Q32d5cGi966ZacI8qPmp9HMU3rIAbNnDZ/DUvYEo42mJTcrNs/j5ThBezHsqPbaiObJT5W6bKkbXE6URX94PS6G7Io07DkjbFJmbzJ2KVkh3SrIM3cB2L7AILvRDm277It+e5uG0/3KOKDzMF16KvRJLsCVpEEcjmD+4ra4vYxe5IFNKOrW7RVqD8mKQKIrolnen6sQfs0p3LtyEZGrGnjNxag0AVK5rNP6phsV/DaVjOOdxQw4ov45R69AQWQ9Bk0uJ+SPNH0WBB2x2q+DRTOPG9fAbNenu7fIQclVbiXfwjyzW72UOQKQRVCCFikFR+TFrhQm8HmCrmmouOBc173wvvw5WKZZmCLC9DZyybv2GKQDb/uIYljy5hlg+cTMAGVJGOHQLlVuAhzE0UgtdNkXLcdDNo3FBLPjpL6noR9c9Jsq4vgiVsTodDvU2UNRwdSXCks1Nc+TElbqRQSFwWbq2XJ8tAsIndq9gQo0IYjw1QxcXNbZVMAXNqhr0a0yyaVYxYSUMT0pGEOUpYC09gJZWbyJqCwDgC+m3bWA7iva6KNl2vv48fjbzKRMLNz0MuriM0iCnQ0WcNF3SXOteGXR5uRfLRgjFOw7qa4nQa1sGWchqWcXgyBwZpZFYnQJXJciM4g8VzCXtMgV7SmzKbOQUBXmBiq+nNF6Wk8NHKcpK1Uh3rwChMsd2KAECJwyLIvuFyLI7BZM73aTyL6BkNFVzSp6dhHaYcmYpllQ60riTygNW7HG+CZQrNt3eZIjcEyMYQKLTQvDUa6SaPo12/ay2wmE7zNFOwuf+Gwhlz4OHAe9o70MAwSGhYnFRjGpYteWwsEX0bbPkxqlAmdZlouRFnANy2PnL9DXa1g9q9oX/hpV7NhrpQJevGetCXKTwfu5vxtzbyMTyx9jTAX87fPq8xfBbOFiPl6aBhcfMHfGcG00lqkUsUbrWDaKwIvNJV0bLTlXczdtQzTGH+2iBLO9V5ZIrKh+W1RMAo7jkN6xhS3VrDyiUKvtoB2gr3G+2Ptn2uup3R9HpdmQLdhRgPYGjCMMVmZycaKBVvIQpf9SG1SvkTcIajKW9eHt5Zw8p+4vlqB9HYYHjhVGkzNw02V2HKROmlM1NY35lxvR2Yok3E01uI4mCLHedqA8bYG4kzezZfcqZoV+wE8br5j9a+lZr2ohzfkym8UCeJQdWWKXBS89C5iqf8LUyB7kIKgLBzDqhenbN5113Yh29H2dBopm6FWFo/h69zajantvIGe9T7yDyzRNc7JbhnW6yT/cgUxc/5W4jCRqRLmng4MIVoEvH04eXmlWp/exXgZdnyblUUDaKcK+MZezszBZvqYC545ok//Z6lP/BriAJXfbk/4MwOG1t5/K3KL+7TtkedHtReA3iZUtHBWiptMlEupCNT5OgLtx/r9xDFZssG2Ygn/keT6clrU3x5H74flTMY9/PPn/EqpaIDVSbKjJ6R+O16MsUDP9WLIiWswcUCr7VaxTWsu0zx4dtRWcXqdvGrEF4VU9Gls2X6XepHGCiam1DytL+KKI5bzvu8XcWq1KFLR78sdKGfXugS/1GmqaVc0SPezvy79h6ieMbT+OH7Uesb6DOl+aKJ0j5OlaJWkzuPyBQM8UjsNxFFNQou8tP3o1I2O43+LzI/OnW1QFNJu6IHZgpvdUJ4h4d79BHkX+Wn70etxHcxPvp4CTuhk/e1wPxIh8GMyRQHfghyxYucmY0QY83t80RRLfG9Bv/XLP7o5VLJv7EZYTBjMsWZG04S8mtEASkV6/P3o9YxkD+ighQFZX1f46gocigUROdla1U5i/rGZIqAMJyWT31cMJ7DgR4uVKwnexRC7ciYf5wq/x1P4+vhNY6Kgo6CKKlTkL38P2O/IZkiTAN84+fl4kmATGlYI9yQWsEsGPnUGWDJ3v8tjops5QcET1Cc0XDWU5GXJmBQpghvhdO730BShRjihtQq+7nuDbDlfXMPeA1T5P56oBIKFjAFd2nC1XGZhY9HZIqrx54WigwhFw8iQ8Ma4YbUOvBzdRFiCFhyXZUjPtwhlPRzLWIKVyBhvVLFcss7DngzY959nWR+BLF4EMk54kFuSO2jlKuL2BJC2cPqSyY/ihw8RUxB9pfOBRJkivw6rq9iit1g5xUtfwOR3FWY/WaMG1I91Zc5pkmrSlwOj5UtfxpFVlIRU5iWMWdQ6LgC/+h4TBF78EGs+a7vL0Esy51cx9Gwqr0CmT+osEyRnffmJY9KX6awCdDPx8ml4A69jClO9S2+HlENS5T81J1RPdOQzxTuXd4h49ycKDoyxSJcAsKjkSfLUhIOzhTgL8EcRdN+EHFbbB0nuqg6eiFX7CuYYpibE0URxxYyhZf/nJ+zeJAZnyn81JIPd+bzgOtPY2lY1TpFrilhmULmMsVLQq+KulnEFJspEX1kCjURUvzgDMgU/qdjMb1H+/J5HOImBr4b1X6KjjrFS5iim06hxNvaHzotoxBrZSL08ZmiQbrqF+MYYXUwxh7uTQy9maLGTzGtj82VattJQghZ7QIfnSmaJLZ/MQ4XPDBv9p77kHPuQ6FmlpSVia7HgExxcGH+tp/iyBRiXJ2iczwFzHgKhQqm2LSz4q4lNj5T+Or3w535OI5Lw8a1PupjNHNjs12MZqZVMZlipdfse3aJwZmi4LvvRHQR6Vi3ozZ2On/dB46Q2QXHxnu4w3hg3YeYTPHl8JlBHh2cD/cmitqiHblMUb6WdLyHO4wSjq1kivsFgAe8mbFYowe7MQaiZDDW7ahNjpft+i/NT/F9q843ZXoVXFXLyZ9XMcVYY+gzeE9q8uqcV9mP/k4VUuZSDMe6AAAgAElEQVSPqZ0y+bZHtjYGQvsms/WDlo6aAZkimp/i5/Aepqh2VJQkmy9RonvUMOyCXpTW1PwakylSGRl+CC/SsGols1eA1EumPvqZSU3TA47IFJfZ8Z7uxxCI5acYC4Nl8X+NQ7Nbyp2mN3bMuxkSguEE4ym8R8OqfOA7DamvSbjbTatqqlSNyRSzvAdHMo/mKKgdw/oMqa9xU/RyVLRVqgZligM1RKuTfj3GLO8RQqXI9zE/XpJFU6GPodT2tg7LFH7RrPf86F3wFg2r8tnsYn68Zo5UoYv+09ajOy5TbIwsPt2RjyNdQ2wIpCtmh9FjluIlS84NevhUGvPv0Ewx4fAODatSqehgfrxo5kOhg6nU+Ka+637+NMbnia16JG8vKC/JjEdo393WVDmZYqIlKu2PogRxef1o3GBvNOfK1tzzths6MTiqLO78AoK5eJlK0b7DtS6jS0ymmGiLmkd+lY0FpbmcdEfrHjenyskUE41RnhFbHdFWUF418WHQdvqjvfU1mWKiNUqpQg9/TQXlRYHcDk3ZrT1VTqaYaI7s+tka6M1sWZzjdbaHQks1oLmHeDSmUOW7Ez/y8POEE+pBzf6JgGiloaH+kopAR7QT7x5umnGYAmMFMGs/uM1EDmCS+kNZOpOJT0DkPqoshZVs9Sx2GFCfQTOGu51eN9Rm+ybrAKoWmqIATQMsHlGqPLMS37NdfgAZ6tOoGlZmEjuPURpJuHyl7aEAjSS8i041DFNIyxTSfNLsoDbiH9xkd/luABpihgf0X8OgVsMy7+Soy0pBpJ1qcHBoNHnCW4nbJ9CG5ProVOMwBXCmAKELkkpUKMyr2vQjTKG1J3Wp2hgjlQrYvTA6mN1lQMAqos+9XE9c0oAq3kwUbaiik/E1ClOQkaEpgyRCyYIwCgUI6XwU32996OsXlikEXTtY6tR3BwxTjHo7RKSqdoAnthYG9gsjKTjuz+82c/ccYJs1Gi2Qtqt9i9V1kcsB0irXrjeohKMz0/ZzTHW7KYzNZWnAcIJVKPSr/mpsptB8EFAsQF5xyG2N4KXTHg53NYJuXhpiCqbcbvRIyoZCCXiWKx8cGhQZ/rlBXXhNYUgaacC6dT2vjfFRjGx9GKgSFasbcvZe7xuuK1bcowp4PVEUzTAH0M+da5kChyqdKkg6prg7XgH54HBGA63rU6t9xL+60WO3UcN6iqNMWUHrvnTuTfxo6RKg161rCEUOqqKNxpqoa3NH2N/toyD87/+3/ge9RzNRIFMAjVaaKchLIO67BGh2Ez2R1jHZ/oLCwl1HFnYkB+lIVLaYkXQCvjn7KnR+8/1rZ0lDyOxpNVXI//t//1N56ED487//+/+pJbyekSSGKWioV0xhnO3aCNlNzJvTDNaw3mgqw6jMKV0FpZ0EKecRAyvcxi1qXH51nGS7rW6BeZGigTHGpjCsEzeoq/TRsF7CKZUDo1j+93//93//8edfr6aLnSh2qqgiy762l2MKsL4yUrXJEK4HuvCJKYw/PyPMEt2a7k9ayXbCrVQWATTPWGM/YYiXZQpzDRJuuwTYXbaaGzTRVU5nYtYK2TC1GtbjkDVWxLrzy38j/vjzrXzxh+7/n2UrZwyq7lo+rPWBTxIzjCXc9lNoBhLW+tisuF23ey018bLfODrrkyntRQrpAjAKQUO9YYrNNLnpxorb8joprY1nmWLL4WPYPA0r44p6e6j7IhWKcYaJCf3jvx3+6NKzvvjHdP0vpSAVPmrQ0UWhwSdf25eVQI896ixIPHA5s5c+2TWNsChOiX4XPS1QyxR2+HcTELd1CmPjbZYppECWiNt4R/LMMcich5qsPinEbR3xOZRJCqxGTP5iRPFGneIvIgp3SZkoKAFfic6RV8xrbyMhLofFHCX8ahfAAISAcNdYH3aGAVwzt6cZ0C2x4Ui/sVCyK7Go1LDIftJMQYEYIO/7nZ4DBCOzwrtaWvnHMcUbicJ4Kajnu/DnPm6yjFaq8ESMZkhXadzeUbjp7Q3h7qRhGTVHko1n1JSwhnWPN5n2gvYTuYtegnAU5wk7T7jh1Joff/XrV1f8yYwmdWU5T1zmjbqJE1PYicZnUXLKooF2JMucqMvTsK7Y7LaGxThpa+ShfhiwJkVFrp7a/ee7VYoTYvHwBjud9NcnFA5M4fTt1mdPtPimB/gmHtCwuIeaOKmFh/pxgAiGg+OXch90fUH66+UqxRn6Gi/vQOz2NIbHFEyam3JFgn6qIh6uD2pJdH1YM+O0LXYeXMPKhNTh4AdhoaDw096GKP58qnON8M8fsR6rVTLiGNe825Or2ty3Ywz+3AdcfroDK2thoas70RXrtNSKmjZ2bDn6dduzvR4mHHzdIdSf9Too/I83KhR/JTutiVHfAHMH1PsHWUKBMcXx4W0kHl4zvcdnXyu63Va7xo4NP6ZifUgr6gDtaREifjV/+QrFG9wV//yR61lRly5El0i9NBxTBEKKW/TneFVNRe58snan+pCGVdnrBzSsV+Afjyj+fIF+8ddL4j9iTNFEqk9tNJTmsxaUOHdR2w0bu2q3swD38juNDE4Uf71AAv95i2fFy2RzQgtTP95oy8e3qVbUTcVq3+ZVW720otfgFfMgf76gjwoJprj7cIU9mDcbLTlXw8ZG17COF5s41w/gz1co9n+8QKHYOFOEvu3CFKyWx83W/RM0ZaUuvJnkn2E1rJfirzeEYf3zAoVi+xBTQE3ryZmClvZTHw2rrdoTPEH0XL9HFVqtGHPIfgc/OMSZ4vZjHOUfLuRpK1oKmjIIHxJuoCVT3L8bUf5p6wbp5Hd6Hf75Y8jl53+NSmCX6KBTJNXpo6ONlxDU4g+4k/nP11sCm/mzoclwbvXeFXyEKQp7eqZb/2MnreiF+Of05uP464/xjaIjGjAFrdrcUHxZtreI9NonnVcZBFtX0BAIJorQ3wtJrIIJYexyp+eY4qag5fJPhoYFwmeK0yF9rMk3459RXJsYavWyXDu1TOFZDn7ySmCplYJ2uccUOouC2DaXBoqy34BNrYBJPU3rwuS9Y2kdAK77OhZTpLcasnXXZDWrzSlUmlNNMi7zjxcmjPLmL5ofFn+OMg3yxyumZI4onCW1w72wqSC8zLQSM9PKqwaUv0GwNP5GRUCmwNy2lGrTpvM2nzarTlDZHC/ZwijWh3Wg6BevZMGF9IL76lBlEPOZWg1rk1adkoaisWIrq/sR481fZgoMcfrj857EfwbpRxlYjObhGwjkjEZBtZmvQWDyys3msFbb3OLmEFOsaqWLdKJh/RSuuqD9b3PSSrcLMhIcki3092hGNCzmHmBFAI/pwYPTEcD0Ab/KIFDpUfOBagORLcZqO+MhTKmYTHEE6fwDuAf+eB9PxKK5wYmzBT2tlMTbmgROp9i85JUh2VDL4RZaVg+syiA5KsGp3ZiUjvs2YAO7v9f3D8RTcIeKuQBXCsFkphM8PXjoboijiiWBxF6S5YWGmbPFwLPFwNMpIhfw00xB0RUf8w64uImXRFD4OK8ltcrzes63Y+vmmpEdLQZ0UDAnhUuYcuIfpXOAsPk3rMp88WRfZ145LKAI+wHrmSJEkqfOSaqTAva9pCophimMzRDjTaVh2QXEEu/qBuDutL27G6lZhj+A0TYcW59zHwGoOYcPqRT//Pm6eVEfHlN4CBWfBVYlkzyXqAwwt8V2HO1PJ5CXTHI8YeajzTtecXjGicU5HwDNzZBAb4YjuE6BysH11SrSFMviNCygq9ko0Sb772aKN/PG1kTxrvxKw/ptlULjLyutfz1ZEcRMi75rsuMAL5ONN78pEwUk7VH+XkcrmbXovW350AabvhSX3DZtc/qtWE7EebDFdqknv6wb7iGmYem9dvvBpmXhQSUhRDUs755D0M00mcJBBW8+ZAXYlOFvtDoIvk7Bv2klzc6oObR+fQR97/7EHvJjR/GARMqTJA4qViDHkBf7wRwshyO5A8ETZ6thuZYTHb6nYU2mYMAlIX8+olj88eTJOiGeyaYRVUCoqVDrnBqO3wS7GG5HnVC5Qm5139fnIVPDCs9v8EZd6/xM1d0M9SDQtG8TTth8/4/4DnSijFd7KW6sOocAYrsGNx9PleO18M3xMJ0pL0sy/3kcx3Yb0mZZ6+6iyYcRv0/BpkGE6iT/Mv76s7dBsJ/BksNjhk4/EFOEH6OwKpBERjOnc+Y/x1ZocI4guI/YcdP2OG+60R5vOPsWMX4I7B2+9HDTMjDl/fPQbkb60Lbk8T9f4MI8wFYwDn99EOaE8uDtQ2p2uvWK0c6Mk+t1Sd6bGn0LDetaxcooGXZNBWyfLaRBBE+4nv2xE2rq0o362sPZiC2sC/PNjokDiCmuvnfCnKCI42EIqRd2xXbL7uoRqnxUbDKguuHLg8OelVINK9l6BkkEjqSVIKHvpYrvmkwRAcn2PS3AEgN5QV5vczgYpsgZLcvbVkepcmkRprjz+KqAj15MkdFojoZ12inqZKjWsHST2oV7rWEVt/lb+PPg4PynVBv4568/WVjXn2ZpxxepFBlMccsVBiJe5+jOE5y0g260HP+imDwtXwhxbTDd07B0SG0f3vwFaDlnSoBeePpndnTWkWj++uP9LswDNFOUuNLLoKyPmN5w8wnuwxR9NCx1rDKY4q1XtIvHqmDPSNPVDf8MtFbgKQXM0fDXjn/+sZrGP/vHP//4w+bT+quJ8TI0AkxxeF5vP2NnV12z1g8tZ6wtzWo1wRS17aYMpkE1rF/CydHwz+EzfX9gBuvCfLKzz+LMFLjeyH2++4z5x0vfFoGINl7YtFk3xVuubbWbxEkpZSzKY0QN6zdxlPz05z/+aDvROhrOTGHWTTv0ZgpZX4n1qJ/IjHXXOc3654ipROVNxzWsW60fCN9XXiZTFGI3RnZrhD6lmOKbOcLAMAXfgoumLfoyhS5uT9OChz9eUGLoz1GRbyMbnTWsgx50JA6ojyw9BL8ceHNSxR0onwRnhv3jn39+txJxwFmneJYpgovbs1uOjshNWjVZJi7PcbN1lziXvpQ3QkuP1y8iX05MlCFsfTzpp4Co5R5v+WgntNcppPTH/c5MIcxyFU+vulSpjvsc7iNMnWKiHYIezcZzH96nsPmcMaPAiADos99vIZroQp9kit0YW5tpWC0dLBO/jmQ8RWvZCH6XmgEBTMzH9qY/VaeN4uSnaGuLxa2PoyOyuukT4U+mmLiDdOQVJoOuRyKuS8GmpSUG4P+BCoqYpdO4AVP81522oL9HzaW3RzNz1QePELefD3MfbY3Iid9GOpp714erFeLNDJPxb6neB9CYaumA8lTixK2qGeBn8Y8yRX2XY58aa1ih1tOLSbD0CX0MRo62DqCb+G2kmIIikKsetGTsM2CmaaohpjNbs8pAlLfeiIUmCWFTgwfzZbOma3qcPFTV1riZISf2nVOXuIYFXNUCcLfDbqDcvlWnnbhAbBl0YyghsHNVMCKvJ/JTqC/kKhMCHz7QHXLd+mYVBCr7E64hBrYakbBJbk0e++t+VyOuYd3KpRW/jaRhAU4RkQZFVZNMDTG1TZdXMSUDWL2PaNP1nf5RgFKl7yVOy4cUy0I64ornHgvxnFdmsy3JkUkXpz2vDkI1Wqe5J6awNXacYmE+kIZBzGIG3kjT9YhpKvFl9IlmUxrW5jEF1QHCD65Kq2MKldkbMphiEkUxUFiFSO3YCMtifiO5mrM/RFHZSGXHO22IWBRw+e11686RGd7FFtVRqVh8Dx1gLEFWx4sQ01RAp4Eo1bC4xzGqv7mSq0bDItML66sIwBplZLYxWyyWH2AyRSkABfcprUIuRhQNUexYBvvJWMbdc8+uB+xrhPcP+R4jgn7uAVzklAu3cFcwYhqWlfdMvjjveN06aU52ykeymq2GSIDtR2XbTAy4DKZAj53xF0EqQipqfrU7PiOyYhHmbLac3BrZ+wPgWfzPCkRGAxniosKJTprxncCBUw8SG2razDzRFUfG6DPcP6dhXQeKuBqNBw2LDrluekJDoPw5ibzYzwnG+ojIrqZD7GTLU3ZPHg7VBjfvY6NzqHyvp2FV53Zsc4ZTvxs0G9SwrgbsMhUrqmHFu86KkV2qb/mq4Q8CR+6dKJbofrA4iZUJUmkD46bg5xJj2R/eDbPPX1KxDupul8aKKVjstx6skFyLQ9Ntmjyfo03DIpTOppmK1UPDegN0UmFrMQgW2a+j/LVjch+ydJJmEMuy2NBboCHLJEDQDmXBJDbEKmZXnR3evpwaE+qjZN1jxwuxeh2UhppWxg5yGcr+ONyE6GDI9wvI+PUYSkFC1LbE+9swXXRux8ta9D61atfMnhz1oECF5NoTHPr9E0ShBmASaeV03j8I+mDSuGvx3JlCrZVWc92Cvt/FXB+4S+vOD/suq5uI0FhPSsV+/KKLqKh9Ff+QTWMbg70xodyUi92+d4/YQVELqQz6O6E76JNSSu95GJWd0d54PyoIZLZ30WjazRwVrtmmDabtCLtn6EoujRWzsPxopgQqJLfpeJs2B4exFowTUGqhw7kEVOcxWMEO05YJzM44lO9b9x9n3+IL6Xr2GKjWQej2pHDzFryxnV92jUKfEMzpVixpbzqLagsQRcjtqEYsj5g9uahkCkGxUNJEPGDat6CqETgc8E9r0W7ZmmkxS95CTAEXsR7g3BRe66Jl6Z4f4wk7/hqKYAEJJHqLlV6+O32PXgkl0AI3c7kQZzNgpxO1q31ZT42pU9JhSDUrcYPujPkLdOhyPlOAoT6IOqYwoYHg/mGAcYApos740Zki98QhDQsuVI3zFr2puYb1W47MxQzNm284oFBaZrDRTSiRdrA3P8FCMyMixRT7cG/UB3o5NbZ/stS/kMpipjd0VwUpO8A65HPDNzCFWanF+ELCVsMUbfEx0ZBmcYoLvjbrby9Ujcttjfv/S0Sx2WBoT6xpqkNSsAI+7qRbaD8D0ApI4fwIHjeIk8OAaMC+wKmxXfZdRAYaQu4FsAfUQUFah88UI7k0K3UKYDoFmAHxwk9xYaxXnTbZqx6tZpxXAgVNmnsirnWKKG82VrFaNjY8Vqs2eLMWgF+imwIF0akaUtV23mgrSeZRpzhKiSS3AnOJHBoTTLchJkEtQkix2sla4B36Pp0iiLBZnGKKhtLxOePDY4qN9IkAU1wEQXTp1W8xBSzkGnTXTaqBvHBTqKkQj1dsfGTC+hDkVsAXcWoMzSFqWVgtQi6smi7r4GY6+G1+igL8BlNgvDUub6NVbXnGRyeh/iGm0FdqxFZypiBRWw9uCmG3c8Fk9JBiCs/jgATkN+Yx1iZXG03hKSjroSPi++Y+8vGc9TGWaIRnHlJM0ZI3h7odXSHMLIKSTY8pUNSEXVOxmidPibb1LFjwIfwQT3EY28G6KPFFNXtJO+oD13PYF6h4WCfLcZZ0pJ+wP1M85tF8g2gkdYqGkWOtGhofwk0jWBNCsQe6EaSaZzBzmiYeft9T+96t8i/M8W4I94KtjMQK66EkgUY2UAQE8tCYxy7L4oI4icr0fCx1UG0T7lQG3xF5lY8MpiiVjovdv4IpGp6qQ5uDYjVxDDg+K6k0ySVUJCUIoSczQUuvJO2D5kJUNKfwJ0YUpOdl0BSwOM/DSqcSZt9Vz/vxxo5KyeJmQjRtgMBZUd1BwElXP4pcDuWm6M8U15FX7hPj0aTUYDSoO460/DcQxYMezVfcjkZY1l1WSRRVOPZKwZCLVhTWhYiDQp9QyVfR1oudI/XmHU4rxFzM9iGOC2dAvMY84wNWldGKuAM0b0j3XjClA1gn1qGMjyeYIm2tczM9Glfozz6CzeZ/cZ4BkWGL/Y6G1QpwMOBOxhxs/CXH2mOr0ok04CpjRMLLZLQM6fwY5w66DW4BaWpd/NN4wBQKrMoM7SUpja5WEMGl6AYM7jLR41rDMznzVOyXZIf0v5T7yFgZw/2byYsCl+GH1q17wjFRCQrXZO7IuiV8klLV5rkdrJXyTFqMfDzCFEdJCGkZmITbyyAJLtcsBUBeZPNnpki4B1yaNrskAic1I2nlmiN3PkR9cbHmjh2IObqxZTY5+w7eHBl2rSndSVnnNlhdOFfe/mi/DEYUTzDFQXzD8VkgGVNgBknkABXyiAHT0mbzZ9HTjCnCSWe98mPgssrp5N542sck63yi4P2wNU70igJfxcIc3SaTubk/YCuj2EPqe1h95HdBU8VtonAEseY1gEvbRiOKR5iCa9FXCjUuSQWXa5YSR2LII6aitQtNkCuswaJblVheyFurBX75McxmDdqM0S0JjEV/BicnTZg4rdi7SgdcwzJUes7mT3U/SGUKdsD9GvSZWS6PalhDY+cGuD/9QCtBRLbsCzjW+R4BD03ZcukN76C1AbYg00r6RhaC+VqyImMb/rM6gVEuaCk8ipU1WMCqIeoIyxTK2xEvq9P6XngfLpw2PlM4bYGy+eOl0beUzZ8OMbcjrK6w8mNIpUY5AaqsMm2XplBJzlplgvwcngvuiNDEZu2Ga5WDHA3yWDjMHEKigQOwsCY8Kz9mqwxZnYJ0kkeZwnObRDUsSXINdnEqZvNH/cEu+ner05h7A44ZczZgehtRKelq+jZoXeVivfzET2OUMLAojaTnA9BTSdJE67RQ4E4Gi1upYddoPCkbGRoWmlG+oG/0n7L5b1zDcjoY3Q5hOcUaLqbukGBuHklM4QqJTKaYOGEUptjuedKIKazPEuXMVMzBYRiQQ1wchi+DTyLGE/ka1nYqRO9pWKR0oOxrZ43WTQRTQ6SvU2xW05qYYHiaKYC9tHsaY1Ok5+IYGbFgn0aJinX5NXOGIlMAHAwWSTSCmph5mTrFxAl9mYKigJhZbgdLLKLX5jzeac69GI0IcnCjy44pUHnCV+miR7jB8nkNa2J8PMkU5B9wCR1OoRa3TvNCMBWr3UUkNayjwXLRwsSEQ1emcL4B4M5EmmuQklXFMgdUPaFvea5TGtZRtmsvi5ji6tu33K+JkdCbKayDXUcESM4UOm6oRYjJW558nynA17BYGMRh/8rTTEy0RFemwJhjyxXbWTYaMMVbJIM0LHQd+lEdMpR5czLFxDDozBRMq0Cf+iGO4Vygs/QkrxEMYgeMqRS4GNYyRaNI0dfcj4lXoSdT2KgmdLFLcrBbP3vA7Vb6oL/H6vaYQiJTOA0rGClafm2vuR0T70JHpjjJcBcn+3skg0ctmHAnsGtEryJFi6/uPcQ58S48yRR9TtL/HG2A1GA1LPvWaViBqylnikbdnZjwMFA0t0XBw/4ewTiXdg/Qwg9pWBMvw5BMkf24v0kwnujqm+7HxLswIlMwRNdR/YZgFFzkT9yPic9gYKYAjvAOT3fpIyjQsH7jhkx8AoMyhc8PYar4Pbm4Jk389snOTPwWBmaK44bTLs91ZwBkaFi/dUMmnsWwTHHecszY8lxvPo0DPwS54qduyMTzGJMpgk893/hbcgHH1Lk/r2FNPI4hmeLiseej6mN9GQEBXjxRx2OdmfhNjMgUkcwK2xZcLPLdmBrWxOfxJqbQLCF+rnBNhob1Wzdk4hMYkCmioVZiWX9NLK5VLPd/YqIzXsYUYl3X8QqxdUU0gEKIqVBMFMI+MAFJ0onszbvDczUiU0S+Mkn2fglRDUuuy2/djYkawLouC5U7BKqPuj88p2dLLBLkYoqxHobk8ZjiEDfRIiXvmxFjCinW5X6J3Ykvh1QGu1xW/EAbl+XEFIY7iCqE92wNzhSu2G7gy59A7Irh5zSsUaDSRTe8880K3wRhPHtmyCWiUCnoTkxBbEKaqqdVDM4U2/bzTOF98JNc/N7d+BCEGoCXZV2JHtSGZjcflCh3dL+xngKzVs9MQQxBjAF8h9GZ4tdl4xjD/tt343MwqvqustOYvDSTHDBjvuhmR4rVvl3d2zNTAG2wb/juozPF9uOyMe/GENhlZ+Wvdtht0TT+it20CrCRBZI7wE9MISz7Leip4PtPphgbR1tM/PTdeAAQlFdJsrOiNF1NOpUrBisdAu3smQMsJ3izHSemsArTtljzw/HD4ExxXBv1c7JxvGDPbfNzd6M/IMwAwsmaeXPhphDFmoZwEri2UlMOkCv22jeZTkyxWKYgPuSEODhTHIMrfk40jncDpk7RE1fuByY6AZmzEMWT1sCsGNklOEaoVg0J+CZTHlPYCxqPKeKxRg/2YwxMDesGpBBmtgKkchiCndmE/Qtge+libvvWZVlkYB9g6rh+w2ROqlNod6QKUaAIR300MxVtT7Ar+85aBgVjh4ZeUgdjcBidSBQzBTtiMsXgiMZT/N7tKIGOINIDNWg/w/7HPO6wrrCRMOgdhFazVSTbinMQh31QoMkKsVo5KIGXeujduWE/i2EHfbRzC2BPVMtqflWYqEnVhCetHSJuUcsxsxl+nN43M8UvSsZkilqY4Rqf9V0Id7WBFAKxWTEWZE347gdvHyIIuRJj0H5oMOBm6eZQV9PqynpCRLAfqyZG9SdfjWgfcWvbz2GKlTEFvnPTISMyRXTV+c9haliVwNFUriSedr2DFgOUYhRilChwSgTbR0dTmNAr0iRwP6KGg6ZBvIOv5L0wr+pYxSOaXaTHFKLZ1OupxTKmWF7CFOmMDL+EqWJVwR+tga2QMgJCSxxI5A2tOHeE28cc7XmMPJ3enctNkAjWjHTuwdUcq7pijhGdmYL1ZONUoBCNp6BY1KGtj+0iNcuPCsbUsKpwHD9t2IIWF+NHYCscPPvA30eLkO9AwP2EDVAi4sCPzr0BLowJu7T/lRuRks8NorlLc7Hx2eJ0towYzeGZIkgVPysYlxrWr96QHIAvBjYeQn0hJSU5kZ4Zb1+8fTbm4CMsnnODiIPWYFpq0HImmfwZHyaaPUZ2fZ2itTgSX5IGFWWK07qP0WdJFWbyaYafrqBWCd8B4IRXSaNgFEAeBM9N4e2z8UkBahyFnSK7PTcFWA1En9Wq/KZLNI2yeNYP9a29n9rQw/MAACAASURBVAKtKuKwcIwmOnOOa0m9AwZliiNX/PYAOst7FEMc3RR0uzxbfbGyjcEN4rwPC+V2jQuzmx/hjSexEijROWCNDzYXg6TUmynMhYNTchgBCn5TaCLIGEYuwNx1aFim8Itm/bhcnK7/129IEj5TMIHkLEAEIpibArYTU4jzJIGa4CSeEda/uWq3J/NgGmuDnBmr22ikEU7xFM3Xk+5nlcLaUeBOIFWUGa2iZ/ETQjI6GXuFGMOkCYJ/E+YtSYIGdvBG/42ZDMLNYsJuxqsdVaSDPOyz6TlSv3F1mCAOkFq0hNE0JGzMsSn5udeV+zb0MXAItmqY88LBS9sgLs7gtnorMsdedT4RBFLmpM5MGL0AvHgHBTNfCiYScx9VdRz3rh0gcYjTPi60kzWBUq4IRihpNx8xlHtFHd5zD+JECnMFCOOoEKzdTkvEGNYSrUWOnclm4gLTEivBrieoHFX6vecNkDqEynoSFhMFZQKtmPOR9tFrQRYvdwQsFIK5aANkNR9tAOd+aindoo+dDKSkBtw8LL3pvULsgIIiGODtO5li4ktxSam+Ice2sC+idGy/pOM2/nI+dXDSn14dPfRade6fNzthjk8UkykmJj4Km9JC9vBShE6Ydxo42CmTKSYmPgq7eHVsq3IyxcTEZ6GpYnSimEwxMfFpSHHS9cfDZIqJiYk0JlNMTEykMZliYmIijbGYIieoaHDHz8TEV2IkpgBIUkXGLhNDw/56gQAgVRb4FAM1MQYGYQodpLw/JVjBST0o5r/aqr8wax7UgyR/5Sn6Dg1L1aVxdbJsmNF6jjMSiwRaB9GxoO+ERcnKgFGYQioQDRh20DQhQRiy0P/NLr/xEOWs8HiBiiVMaidcgEHrKtblvG6S8jIJd9xEJ4DE8u1m6XnOMzQIU+wUYGhAIFNIiS+GNdSXhjN+giloIZi0qxJIw6JbA8Qk4TqawwBwBbZZSElJ7iGQmu2YcGl0rcIMbtI+jfoRHZy2DRRP7/RgykypR0qXOUnd7lGYQosA0ynUD6BpQtI/xRA/whROw5LmEy0iFfZ2SMCnFMY2xmDh790vl07i2K+gbzWUWmslSlUF43XCdnlbQ6rSYADBCp3xzesSXxBCP6S/KA7oz0Mwtob2U5BQSDN+Wk8F2KF1bNFoASANC4gpBKBJhhqWMcxewBQby7/A10pmJIZ+ZGllPnAZe+b6KtV9IYf7bXaeuNTV9u9iF4fl13iOFEyZoobwpy7UPO7WMte9sN3awNHWb6Rn0IxgdArzS6hYX88W08SxvYEpXJ5nL/1CtNiEOO//OcDpTe6B2hcwFN2JJb66REYS3VimoGfQPpI44XAPJPn2BaQMNGqN7aG8/TxrwaP8JEmFOmtYjCmQUYcQpwhsUsr1IjH0YbeNVQt+oHtRaAv+XhMD8bgrYHINcbmLyV5uaYLcAwK0QXZ3vLLPuVGlzSRGH8ePNw9PvpratqyKtZmbg76CJh3NOD05Mt0ZScuij27z4CrWbv+uXjZqRE753A4FfUuQ5efLBjRsqw4i63bClVpBTCENTZjRShvJyja+6zzUY6HxTOL8hh4MO4yDNt6C/Lk3hJtmaK3nxHT8vlAaeXcalvE2nL1LFH5083QDQKWFxvoXibI0Qab46ExpY7NO+QzXD5qKGQqFwYVaoX4U40CTG/rINHFs+k7dZArDOUQ55IKDpG1tNQL3J3kqIgoUbuG8oDXdRkVfUGM6ePAuwZ00LNlNw6IzspcPKB+o7lI9zlKmaF/+4tNgCfWfRkGq3XACPWIKMwobHYCm5e7SKrnwBaD/QxrJizFFyCeQQRco3ALnUiXski10fuWqbgvHFGqeXKCD9+aI4CYuzD2wjsnmMvyg1RfDakvlbMlC24MwhczT0V+HopzcQapA68OwAs01FI3mkRMiUxgpNuKMXrirdq/PGE+BamOzNs5JUptQpTBhHJYpNqth3WQKZ+OBMe7IMZnQ3A4/R5aG5Xyf20ba4n2lqBDSc00mmGJlTIHv2pfpTECK5+yDR3+K/DS7uH+ALt1v0b5oMHrsye43knbNFOmzXfIIMYUZrpGTtEekjinAihq4GI+bgoYD+4Y6xWYCp+KhZCG6zqALjLVgHmrZxkNdBhdLVcQUy6eY4lE3QirQqSVCgl98RNffwoUha7PC8+QHd64+keMkEu6tWrhx/MYG7ETIXeIkpmB0Bomg00oNa7N+J9KwKPDi2fDWxYu6XON+Ch5PIWnTs9bHs7ZZLAiqMSoMqnOEbH/WjtQ6iG0paY9z0tF+Kuhpqo83NSzjOrARbq5/lRrW5S5Me8E5G3RXPMsUNthS8NK9iIwYzS/0aB7wkFOkyEdBOFHFoY4aob5bVSg64bU39BYD9QeZDfrV9TZ88VnuiIvNEjlJOk5q4aEuBIk8FtFLzJKe1n08Nkv6yXVET/weso5vxeEwr3Y8KdmtueIj7DMommtYgZ2Z/eRrWM/KBNUCR05YLmI0sRLfcS1pp4K+R8h19EWrN1G90u5wX/hSP/bQtRRscAh/XdVm4mQVbV62NbaGda1i3Wv4Poz1IJ3bQfLv7AO8svLfvKTvAwV9E4uinkPHX6aaCA8UczX30Uw+mKRdjH9tzmNPBvalSVttGjs13PayG7bVErscShfxB86YkMJkUNEfWPyE4JZ7/xVio/CE5sdOPam0PRR8+8MyxenRbTYuX35qDt763VNNDasBwFt3LS70YHaj+e79V50PZBF3027ulCbzqNrmp+jjDQyFWzY6x0kAoKVWFApiaAHWq1AHm0q15YhRnERFTvinCvqOgj5cAXfo1tNH/Ew2/knu9/v8iB6k+V7jqc/1zX+HhtVHK7qBggFu+Dqd7QHH6YYGuOeu5b8BMkU4SOHOSa6a7fbInhtuyRRN+h1Qg/yPt9qObxiCKvKjipNEoUJGTDo6lYqqLL/U4Ml/GGIdVWsW2B0IJ365Fy8lmRIYZYq7N/QBD2afc3ViuIA0Q+zrssaT57rTeitkKtjxlX2YI1ZI58AWOg9GFgXI7PXXH8eloINcTao+ewOkMPk0/Eu7mRODn5+YIrhfD6awG5s8ub2YIrStwWxKh0YHONezUEISzjuvCSQlG/Cm+IlwLh+1kO3yDvh0edfXw+5VjClumx+5TAHpMznnnP85ca6cXoZOlrvxdrO9Zku/lSlkggtUjq3Y9+Kz2XHyQEp/MA3nrhJFFTPJ1pPcND48n2ZfpghuDLkAok+x+o7MUEcYx5mOvHNl4aKxqrYSrbpgk5ut+2fo5Hf6NLICKmOTCPmptT8JMAlv5HIqCpA3QWJv041gCsRyfPcpptCz/S71g7dyCiiZJa23BLvFO+TcavhcBf1+nin8UJBkU6RhWp7J0rDeICURZAdewys0hxjkrjeA9lV6F5I9kYq36n7qTufSue2nIFGmdUmCRwxctmoFRLAqgzaBjMlir1PTYI0cTDklTaIFwasOAieMmivIPawLU5xbhYSKpUlUeExxDq/6QqaAksxy8PrUVYKKAbpNRYGcimtuhV1hN+xtrJv7cE4TsOljsOKXjGvUFG9NDVENHFczzNDCpjNXYqmszabGdCW0DmsAB2IK0nK2gzclo1WiXWI/tg7UKlQSmQLpgViCaj/H+vpmppCFakJOyvqhQXVDrc+h9IJ2BeR+Tgk3T3rJFBB4sHCw10JrHlpKNCUpKQKlyrxoVftjhJv5JXLYTFUsqpZlSMIlqgPJmMIrTOi6FrrOx5nCybKWXy955XWrVsOiKoPYhMSLB2AlnJEkMU2yVcqAa1jfxxQVcu+pFa+7dKtToKiWMuWmuOU+U7gYz6to7lB6eSqHaZNKu386Dx0+zQmmMHEy+FE4pwMJgktftdEHkEQmzkDhawRgu7J0iu6KO6xMw2JcwIsAHssrBacjmAqBBwlkCmD6lLLSkJnJFqPfQIDHFNRwuKPpSx8TUOV3YEd1iH7sC7ksnvlxtWYmjrqjONzsySVTBOZipHMh6CfXpnojWafklRGmUNPZajoYhz6BQ+rFeBvLzHtw9PeNpwh10egPRG5UkV0JsbBpbkXibohV1cC1TEMaFrIjpto0+Xkx9x8xqbQ/BR2SvPLX+imqV5XiIrOK8fjDAEcU+tprV8vdX497YgoSN1p8COs5yx9nCps3lups2HrDfLQ/utnMmCtscEgitUruagVw/T5szzo81OBhgxSXGhbmyEfRZkwBaENFmWJRoYXEybbKINj7afUtbcu4mR92zdLOFmGjV1c+FFPoR0FkRWHfWCum17y/0Lu5MqZYr+t6pVGebPcAe+95fgoOGYgCcw40m06JpjI39+x6TyQf+F3braszeeDbbzTpfxbnWnHaWUODOg30XsnGYzmPgDNoJ81dzyQNy04Vm9fjzq6hc3cP93zseAoQWDdc4xyE7Hf0ulRmBnb9e7Ca6TlQJCpW69O8oxLdYBmNEFNIT8hypTk0UvJv4fAGP2S5BzM7AOcT4sCc1cBFo56G5Qwmt4vwNSxdUtiWV8rXsKRtOXHPc3+S5hpWW8A55NqEYdvuCT+G4J6gv8/y4NB610214B5VhKwP/0G6I2enZgJPbcQD4Y7y/sROcNwg15sVs3w9hRlMfBenUTmrgd7TW95Bb+B/kYbVENexyC6w0Athvu2LfHuei9v2wz2qODJFSKyaUUVIhQif8EpvPgcnRNrRkr2cHQtFAG/qJ1ucE7eRaVg+aWS1ndmDgPJ2fWOfRXwZp9SjJ7AYgiaTFvdDmj+KBgva7lDFmSkCO8VHcjMc2r8xLSFd0AKViFS3uSBcKxug1+TeK/jVSXV3ghs9m3+Ap2HFzaqwhgVCZLJRV6Rjh0C5FXgIcxOF4HVTpBw33QwaN9SS4yzpxWMUnhgMWcFXKm9O65kccTgSdIzXRcsYjVSNK4XnPi44NawubZEbk6thbVrDerKO3hWypiAwjoAejTaWg3ivq6JN1+vv4yHyKqIOuHcXNHA6gu/oxRVdNF4jgqAHqGtXxE2pvtBUrgjvEuHdM0qGlWtY1/aZSuiwthiZ7iFzCgK8wMRW05svSknho5XlJGujNWURU+RxhH8cmidrTO0ta/MAGU1xdNObmbX5ghlShJHSsIpVLDQwrjlZraj7tKjkhgDZGAKFZvzWSDd5HO36XWuBCW/dR9IfUSd3Ru0NJ+cxO9xRiaUQkTW1d5iiSMPKVrHUJ2/53EXrdRqWXo+c0fFPIdffYFc76Gtq5194qVezoS5UybquBxlMUXUGc7RYzxFLXus32o53rQdTWKdiKXnSIWqutY+GBf00rBbIJQq32kE0VgRe6apo2enKu+mOWhLP0b2HDJc+9mk8enh90500LJqRibVe1a45VkTDoj9MFblEwVc7QFvhfqP90bbPVbcTvJxXx+nKs2/tDqLN3WQK74OMRQSXtBrlnzs9VlFHvcQ5oWF9VEyyn3i+2kE0NhheOFXa2A1dY8owetHWB/tKLVvwmaO2Y9SA9+ngWcOsNZUtHzjIb6meKbJPWdxyQh/pp2F9dMlH9my+5ExxMyDmjNfNf7T2rdS0xzj+OHuCC5ws+jKFXk1YPdV7OLANU5zjRCKnvNv6QQ26yUNey400rAYoGxpBr+QXYrmfhcXH65yazamtvMFAvQ8LAY8yBa4MAvD+bPzP9dfR6ccmTKHXfV+e4m7rZ6a4swjkQGnSk88PMkWl2t9eBXhZtrxbFUWDKOdKPh3xPTpFIxeI1wxP4BU4x83WT0yhqse10rAyMts8gkq3XHs5eZtS0cFaKm3SKxdy9FPAYbaiu58i+wSn/Y5S10bfPjGFeJApcLlKgV7l/hyegsaO6WpUzmDczz9/xquUig5UucnC38L77U5M8Ym5j7wIJsmbOHkHD0xR3e9P6hSquGQjT2xc4XoOlVWsbhe/CuFVMRVdOlum3/k/QkY8RT+XvAtLTPQBc3O7vfWfLqEaH/VT3AlbPXo0feKsbfUuKnXo0tEvC13opxe6xH+UaWq+KzoVo6mCptu55E/fUd56IyEmbaRZMbJhUm6VttboC4IS2wJVBoo13aa/vTWsUOsZsV3gaJLFjfIdBpn7qPUN9JnSfNFEaR+nSlGrh51TTKGyHNY/ZgDRkZ9S1QOrIYbVAYDqBGBqf9UVl98WUkxxJzA6cT3deNPaVUlFzNRDYV1KaSMfMz4qZbPT6P8i86NTVws0laMrOrWW1GSPqnnS7CN8eSxQkTBkCs0BVFlIYjZqTH1N5cZs5nrc47rpWkQ1LBlblpbTeJTdgCr/gMTPeBNt2ROTs1NpeZJVZ6KqIJGm73S6HrUS38X46OMl7IRO3teCp/cYBpNcdQ6qZEXpcgfvgKsDAWxhAFYZSGBUgcTSYRJzXpOkkFaBBQSum65FlCnu5dKK30WwRdhcZSDiCFcFCLQ5pm0xV+8D6zHWXFNX1Ep8r8H/NYs/erlU8m/sKQwmnfMK7IccvoDAbuFjtL4hUNd2h3n/JX0tpWQ7sZS21/2uRkxTkSZ/Tq2KFWsdmC1mKwIYZWrTNcRsgUEsFUTEmmaKtxkfBSNq2XTRaxwVRQ6FRNUcb9fcds+L+sryaMIZgW2Boy5at8U0L8jEVRA6mhoxubvtS7jWVJSGlcmZXoNpDQttMSrEZmuIAdUNIVvMFW6zTEEFBC6bzu1pY9SOjPnHqfLf8TS+Hl7jqCjoqPIP5Decvfz/tN9VtcHwJvriCuG9ZWAFZWKAPfbgUjCziakAUQ3LCnwOXYTuTKR1SckEj1TsTDV8I/nXVr3qomLdQK1gFox86gywZO//FkdFtvIDgicozmg461kIpQnoXe9Dr7U+J3AJskcVTv1s0PFMDStCmZUaFlCrwV7ZO3ZKKEyH5Hb8IdQq+7nuDbDlfXMPeA1T5P5moBIKFjAFd2nC1XHBwsd+tcHwh2D/siH1POuxdRnPhlWAkn4XtJmxiZ0zX8OS1RqWr2Ld73d/1Drwc3URYghYcl2Vb4m9KunnWsQUrkDCeqWKhcs78i4lH3O7Y0DGL0VDpd09Nh6ukFyLtHzWNBn9XN+wShh4bl3EZi6K2u/V8RrUymXuk2FLCGUPqy+Z/Chy8BQxBdlfOhdIkCmukqgfupQnbaHsM1dzluCV8LXNq5ySibOUQLXaSthsg+EPgX1L2lW1N86ti8sifKXooWLVdqWaKXLdbiT4l8NjZcufRpGVVMQUpmXMGRQ67tKSq/oxKQDClumlibpAz648pc0f4Q4NIhIUFIx5urYPzKyejaoykzqBCsnVaK5gVXek1iuQKc/CMkV23pvJFCtLgH4+Tl5HZNcwhZ3XN6FAYOOtAyITc7G1fZB7iEWWuAUv+1rDstu5NMu2Rb5aa1h1qJ5pyGcK9y7vkMkUi3AJCI8ju4x5BCqZQpgpfZzNx3jrgMjEnfHDM0XeiW0Qqwu+toveDruGtI+rL2726vMyUR29kCv2FUzxjtCrIo4tZAov/zk/p4iv8KplCgCKC6Lg66D18eC03cdEg7QqDL6W3vJYH0Gm6KJhfTRzJqJap8g1JSxTyFymeEnoVVE3i5hiMyWij0yRKDChDyw4CYEFZlKckFmpkCcanZ7iTzGFWYgBLl7SLWU57xtsIPZlda8GYIpqP0VHneIlTNFNp1ACb+0P7TUQYs1KhN5sgjls0KeYouED/TnjA80vxxTbBVNczSP36NUPMEWNn2JaH5sr1baThK4olXXvOoeiJHWKZg/050SDlCuMp3avgT3Dx3fpVIdGS/vQ2aMp59yHQs0sKSsTnYtPM0XnM30MJRoWU7Eanr9ZU/V96BxPATOeQqGCKTbtrCizxD7BFF87iKaQZoovULEYOjMFj9HMtComU6z0mn3PEJ9nisJn+jqkqaiZj+BJ66NDm8WojZ3OX/eBI2R2wbG57sPuK8ZiiusIgsDHjDAnE63AWqZD3kAUibmPpica4nbUrgHMZYrytaSvYYqC36+SKbbCWL8PMMWFnmFkntGA/x8wvctm4p8B4xBdWu++19EGGc6LWg3r0MoQt6M2OV626780P8X3rTrflOlVcFX1kz/dSfb0zIaJAsOVNpvNn0HyNJIq7RQl4hXADtHN5HWBtuBa7+ekKocpPBUr1Vwgm//liZ5Hdc6r7Ed/pwop88fUTpl82yNbG1PJ85clP9lLvaOmvzp2KQl8m8vmb6LCpdUeKJKJoiBD2fyZKRJs3Jcft57VqCTyQa64JK3jRjvpSvvYjzQjS8GxgjQsDCIfScOqdVSUJJsvUaJ71DDsgl6UdsP8esBw8x7bC6eeZExhM3JT8n6w3CFdJlqezZ9kKLiokwVBWQ3F5gM35POcZAU0rGCfJaXm17uwZHi0JM9dvQBiTX5I8GTY+tWW9hpWrWT2CpB6ydRHPzPpRnrAJ1w8bEy/engF5Zq12fylzV8PgMU/SLht0SDMKgn4rNv83U6yTMp7XXSMBEpYphCshNkDt4FuQeQjbeQ5ui0lInkS2bFs/tKqXJwpwjebGyz4GbP80q1ryJuDZfF/jUOzW8qdGzf2mXtnR8Sr7226fnpkbajjBjab/0Y5us0OpIdbnUCrIGzlmlsOL5wsgdg8ptjgWKa4+624+OC2SsYUlKMbaUMw7rA8Ym0xZIqDhuU8H0ZFw/hdy6W20JKUpv12N6Pyge80pL4m4W43reqGUjUGy4KMjILsoYdQrtmNZIGUDlrbqiVCYPkxEOQG3ZyQkfXyIFNkaFgmmz9IYgrpVQiyWYTQTNscU4DHFLrEkF2zhoaXvR3kG0KrTt8G9UE0vRu1Y1ifIfU1bopejoo7StUYTJHy8yfnAPRfJkRu7LQr4y1TAIkKScyT1ofpblzDwoqrzPHqOzXxa/U4mXli84mpY/os6BtGDWuj+aMNePkxo1c5pjD/P65U9DE/XpJFU6GPoXTnti5JMXwBcIzGYp4uAAOMwUJWipMjYILF5hgGAWpYVyoWMyuOGtbGrobZYoY1hLG4DgYLuog3eiFNqxEqn80u5sdr5kgVuug/dzy6zzKFN+vX7LwJuRIng+WiW8Mg4SrI0rCoJjQr+wrW4rKTR2h6eUlRm9pix4rZuegxS/GSJecGPXwqt/i3J1P4UUBA8Q+b1f1vhSdenOby+5+Bs8VQxdgYN0tfxUK3BqtE1lrDqlQqOpgfL5r5UOhgKt26qZ2Zws5luLSbzKG4pQb73NO8Ca634JShpzSsUPmxSA9boHIkby8oL8mMR2jf3XtU2ZEpQFqKMP57M+2gFV7hsm/ePs1LiIL66SY+jIqFcR6n2cnayyIV6+rbp+9Xpf1RlCAurx+NG+yN5lx5j3s63j4XIIUhhx5T0NvbZ3kTU1jFf7ORopvTsI5BWdWnGQtVFnd+AcFcvEylaN/hWpcRoiNTsJhrZAoWx7CFmaL8WsaTjAvYEAbM5E22GM5TijZztSPejppHfpWNBeWmnHwArXt884b2ZAobK0QBhdYcQSf7eeK++EEfUTKCOGhY4sAUgJrW7dOMeD/KM2KrI9oKyqsmPgzaTn/ctb76MQXp0ybwmsUOsbenX6/0QR9SMILgTKEjnjbJ/bu6vtBRoL5GwyqlCj38NRWUFwVyOzRlt7uNdWOK86R8Dyf7oJIRgBe1QCu+aGXrRaTo92hYF/WzL4DezJbFOV5neyi0dMLe9hCP5xAu+UmHlYwTgFa8mjnMkIYVCgkrPcuw90Pkh1IB0UpDQ/0lFYGOaDcBdP9eDsgU+Zc0rmCccJqiCXT99tWMfD9E7qPKUljJVk9n8ynXp9CM4QrT64ZaaNGNtsgffAYWjCOqoyNK9h36fmQmsfMYpZGEy1faHgpwX8I1GjDOgExBSC25HFswGuGLNCwQaacaHBwaTcbUVuL2CbQhuRaMOyxTAEd4h6e79BF8k4YFa3weWK4nLmlAFW8mijZU0UQ1G5IpDvQQ5IoXCEZTfIeGJSJVtQM8sbUwsF8YScFxf363jbtnTKY4zrCe/YHvEIwmMNMiCRXrNfdj54OAYgHyikNuawQvnfZwuKsRNPLSjMkUKRXil4hiO5LD2zUsVaJilbbHsLPEGqlYcY8q4PVEUTTDHEArd+6ITJEcNN8kF/dx1iICG57rTgsoclAVbTTWRF2bO8L+bh8F4Y6w36MZhgGZ4uKxZ4PQy+TiJoIqRErJeAcyO15NFXJpsJRmAMhqwmsXSTIeU8R8dmYtyVf8+Nm40LAg+P5LUTkwikVk6CzjYye8kirFDi1trxcxhbJoV/H9YuEjpWG9zvKoQtWguu784kyc9/KFMj6OgSaZBza0vYZjisiDf+0g/15cKgwmKebzKaw+hFQoxhkmJtR6Q5aikuAjARUqUSr20MxFoTEeU0S+kmtwyv2bEdOwQI2Tv0EUW6mkwGrERDKieOetssoEXVImCkrAZ2Fwpjh8alqK4g1IaVjf4bDLA+QPE2BpBRxTvPNW8UxVBQ5aWUYrGRiNKQ5OfT993u8MoITYFauZxl9iiqsozhOA+//WdxOFD3VlOdeReaOKMDRTbAcd4geZIvbpZ5wUDrAmRUWuntotvogoFNKuup1OehhaYzPF9vM6hfdBit/mTQWIaVLKIjuU6UNHxRf5t/Q1Xt6Bborm2Ezx67JxvOAf17AQUoeDnyqymqDw096aKL6HJzS0i+rozd5N9VVt7nTOsZli+3Hr43g3fps3OUw4+LpDqD/rdYDV+lKiSIi8JkZ9A8wdUO+7sYTC0ExxXhv1dHc+jBNT+MbYo30ZEDqDsRBxf81ufrxwkVhmdCXQXHl/0RieKS6//AWcrA8Z+XIiCHgjUTSNrmyD0ZgiOlD+nGic1tr/tIZVCU4U8Irwq8IYq2cwHlNEYo3Gu329EcvK8YO34z4GHKxPGHOp/GSKoRG75B+8HQ0w5Hh9wJAdHI4poqvOfw5RpniuG1+F1gsifgSTKcbG1LA6oHEZ9d/AeEyRzsjwS4itJX2yHxMPYOhfdECmPya29wAAIABJREFUSOfR/CXE8lNMfBNgHVEYLYbs3MuTTzfFb9dF+h1AZQK8xzAkU5zE4/cWTTpMDasbukY/l2H83MBjMoUfZPSDq6s5Alf/2zekGaA441wnwPA8MSxTbOm6pL+DqWF1wyhc8YIfdFim2CxZfLobA4DfhnlLmmIUrhgeIzPFhMXUsPrhkzf0Rb/lZIrXYNLEt0HWFPH4FCZTTEwYPMvC8LLiNZMpJiY04EnJlenUwYNhMsXEBEIGE3H2OdWb1AmNyRQTExawk8W7hvrHMJliYoKjK1G8T5WwmEwxMRFEa8ow5SEbN/ocJlNMTIQAbWtnaB/Imw2byRQTE2GAqkDUaobi1SyhMJliYuIacEuvAPlix8QBkykmJnIgTuX94jA1vgZa2H4TkykmJnIAQol+ooy4C7cHVdvsgW49hskUExP5cNKPRUHtyo3V1FR/7+RGApMpJiaqcFjZ+10axBmTKSYmJtKYTDExMZHGZIqJiYk0JlNMTEykMZliYmIijckUExMTaUymeAcA+kzDqXY7NDvxdZhM8QqABP3/Le1OfB0mU7wBoFY0gmwu0rrFDu1OfB8mU7wAuKARShcmgvcSaheq2p34QUymeAEEJkmAsmQJlggujgJKrSJflib685DPBW/vPC7sYpIPepUmU4wPabPLi5JKMiD0uke4TMYiaUk0iEkVJQB1Y59K+S/FQvUQYcVzfwKTKcYE7GK8/1eyjBKvIL0ammofYziAGnhQ79g3aQqQ67LuOgO+mG80NeyHgf7v+EF86vF7JVBYxVPLRhdMFy5Xc/bP2IqTKcYEiEXRwLo/FkwpkHxRs86AoB9XLfNG2hUZ7NQi9Vikcq/sTQjjt9xflE6ituiGebuzim8+gPL8PySycjFCKkmh/EydgckUg0JoOZaL2CXbSjTwQpZ6u5RkPGilwhgqmjTI+KAXRSH68J0h5K6v8Hbl96ZVyAfdAkgQgL1X8IzI7oxvzkb9kh+pZjqZYkwYveDMFOz3Aq1wgOUCQPJQX4D1T+DLTiFKv9BtrmYwZPTwqlK6nUA+IEjoV8L9BM/ctdV0iJ1s+QSvT6YYEyjg4sQUbhgDQSRA3yO9gKYAJAKJm1bl9iCGgG07MsWvOypw5N6JIi4SsDiJfcZoM24Kfi7xCftjMsWYQDFWw/8VUxilgugBD0L9wf7dzLeqrjYGWNn9f0WnkGK3vKzFIIRLgqs9xsLQ6qLLcYBYlsWGl6id0RmsfcTqg2ASG2IVs6tv+p0aEyzpt+Q9Muk6vQ5KQ038l5fLB36uyRRjgrSDFbYrPwWqAuD0AXYQzWfgs7prsBQAYPf/ET+FGoBJpLWmBqQ9qItWBXu0eO5Modw+usQHfb/fKH3gLq07P+y7rG4iQmM9KRUqK6/6yVa1r+IfsmlsY7A3JpSbcrHb9+4RO6ifi1QG/Z3QHfRJKaX3dMFkiiGBAq5FH4JMAXrkWgJMIQNuipWNU9TcbzCFsRaME1BqocO5BFTnMVjBDtOWCczOOJTvW/fxfd/iC+l69hio1kHo9qRw8xa8MUXbwpwQzOn2dsB1FtUWIIqQ21GNWD4wVzWZYkgYAUcfA4un0MxhVmtoVXgF65yQRCyKAYwmoidPtDKx2n1cHBeLp5AfmqN/ACjahiJYQAKJ3mKll+9O36NXQgm0wM1cYsTZDFCeJcFe1lNj6pR0GFLNStygO2P+Ah26nM8UYKjumEwxJNScB3kgvRhNsO4JNZlhpkdVwIRmDx0pIbX3Um/Fhjb6RoLPOz8Ro7mYoXnzDQcUSssMNroJJdIO9sb5u9DMiEgxxT7cG/WBXk6N7Z/s7V5IZTHTG7qrgpQdYB3yueGrmYInPD9tsAnRv/eBLYNQMQ+0XgMoGhDjrLRnDYSkPaxPzAR1UniFwEis4z52GQg4pvhalULLtsQ3K99KOgIGK6AgkG6h/QzWsBPOj+Bxgzg5DIgG7AucGpMLi8hAQ8i9APaAOihI6/CZ4nmXZiemAB1UbN4avRdjjC3MBnxohQZ8QZ3XNlBPFZ/kIM/C1dAPpzeRfRykXUv6zbd9tWqDN2sB+CW6KVAQnaohpXPuWMfkSac4yo8ktwJziRwaE0y3ISZBLUJIsdrJWuAd+ladQj17OKiBDSVm03lmrAM3s69gcjB88zObDTh4GI0ot785pt3vJgo9zG9M9hRINZAXbgo1FeLxip2ITlgfgtwK+CJOjaE5RC0Lq0VIM1F76uBmOvidfgqkh40UW4oddE58QyPIHYo10BYpXFj9pZDHJ0H2yU0FndodBvrKjNhKzhQkauvBTSHsdi6YjB5STOF5HJCA/MY8xlKSIaxhw5peDx0RXzr3YeUdUyAIHgWkgNoELAIO7PDCXAlHD8zZJ1Pa4Loc70LPPJqvu+H5wKdsgQNToKgJu6ZiNayiRNt6Fiz4EH6IpzgwOlgXJb6oZi9pR33geg77AhUP62Q5zpI+/5v1YgprWbNYIDZU2injVc/1Md/7+N41KWxmGaM1CunTG1gXDAiELBq51VD/xeL7IISbRrAmhPqt0I0g1XNo5jSNi2zfEzCmVe9rYjv5EO4FWxmJFSzY1ZvaVAQE8tCYxy68djpRmZ6PpQ6qbcKdyuCbIq+QGyioFe8H2PviuFytcNQ1op2jf2wh0S4YvDqcXVAxDK7TzAUjF4SYLpiPwCyepfHZzDEbnWHRK/bVZCZo6ZWkfdBciIrmFP7EiIL0vAyaAhbneVjpVGbNjYqhPzR2VEpYeXRNGyBwVlR3EHDS1Y8iPxmnT6CbTrGwQEHpQtDwLuEW48xRkufIVYwdBaSfJGBEoX9oL47SuWBsQITbf+JJLDoXB8qVCsde6UlctKKwLkQcFPqESr7meDtH6s07nFaIuZjtQxwXzoB4jXnGB6wqoxVxhxkypXsvmNIBrBPrB4yPLkxhUqws0q1ndExBy2IWu8QRN1jTfPB4Qe6C0X8DLhh8Acp0QLNA30UV4NwxhjmlPMyi8C36vXagPnkTYOPnA+897cBetvMO5ybd4E6kAVcZI5xNHWxM4JNiiebcQbfBLSBNrYvvgw5MQZGDanGTna0+6BRqxbTS0RcWqOwWLrXvUzs4FwxmqUQXDCkVRB1sOQa5XuTwLpgSaG8MXqsJ/hSUAYN2EHau3CydWjAY/TMdbgWbzNS5I+t+WInCl+l2sHLxmYW/HZiCrWgUV0xhVv+qBG5uw3kx9JCQdumV+URMQVoiOWtXpmWgRvmIC+apMVtaqceoDJduC3fA9WrG1heSFIz3UwWtNbWjXN0Tu7pwrrz9aYiqOttdtGcKcmau4jDF4TGF0V09N80rmEKtxmCrtzbSijhTIJO4oDynbnSRYqvYsw89zuODZXFg81vs1xPcwOR2yesdNiao/i5ROILIfOJxaduHUol0YQr1Is3qf4GbDrOkdlc2ZfAGpgAbayoumILeOaZwqkTTHEk70XrkAAGmAPZFa5Athe4XWkBh7wO9E5gAwvVj+OmtJHZugPtPqb1D2bKPiVM/gvZMIYkpwFnvJ7efhhfevYkXeDTt4k0bmk6GlWMKrVSo7y11WCu24eyWzoaUnHftqWA4hwyfGHTxBqRA6i+U146nwxj3J34U+0Mi3kKbvawP8CYPba43YHEF9lEzlokNah34MbJJKRlTHHUKdV3q97eC4aY8WjJFdhyoP0HRDuoyjTaMU4W0CJMWvi7sDuFEOJHIyGrjRBidPJqoYJJljhUoPEvWEoWWKVv5bmTV1LlgHFMcPZp6P2DL4XjCmNtMccMbCHIV7YK/1FWZ5HzCZwrBopC8ZZogVxsbMBP8vg99Zkmlk3trzFLIM4YquSXnaiXpO9Iv2Yz4wqo+p1lSu+vZ+LjLFCBvqqpuzvIutFagHdJ0ocuJKUzMDLgNQPrGZIoXokuMJtNznertK79e+gWuSA+sUni5r51GlHDBsHirex5NaKEStCIKk+aTMcVZp9BWmLI6HFNShOSsbvg+9F5qUqouDx3HiC4YcmvqbagiCS+7hiIK+5aHjIxycTcXu0ryYp6Zgq+g0u5Upj/QvgPdiIlcdF+UVkYVYy+j0gSAs4LEAGb+T1IaDr1Jb8NjmDVV6YLpcU8gY+IkAhMHowXemwzdvCzgGnzS296zaX28D/2Xr6bKPPo7j/0EAZubpOWjbCaSXDBcCrnxURP0e1OmY83Wt0tMIRxTgA04u/DXbBQ6NJnilZi5uYvAXCoukcZxpZRHdyytcIVlBf0ip+CGrmKYguK30exYXQAWu0noztGf6AbAOrKNORHEZIpqlAYl17hgBrXGpJn6YLUN8RV4mXUTH6Ze0Y1jC+wNPL81cYHJFPUoE+NBhb5uOmRXFWiam+c3kzaMBq0TmizXE+HMdzPorZi4xmSKGyjLeFcmHY/JUl3aDHBGkSswZM0wzFfBLS/mFRk/AeLEGZMphsSjJTjkzUCN0r4OPRM+cYGHmQIsnj3vuwB3ZbfifLcOL+rtl5cX+VY8yBSqrpjJZyJlx9XQ70eTYMzCU946YZFlNay/ZiKKp5gCacLpFPrzJIsQXnhXSpiiXy8mOuIhpjBxAf5DoiMb5wAzMfEGPMIUl/GAnQIQH4ZSj4Q0ptW7r6ZF9//++z+Iv/++39rEKHiCKWL+uaedd80BhiUkmPLu4o5JVRT43gO3PSR//+ff//rXv/5LY3/z73//Z7LFl+CBdR+JdVFvLoNh1oL5FSWkqBW3AeIMbv0Yiib+64B//WtyxXeg/1rStNy8lSrgQiGq05NuTlW2QnUv/v7Pvyw7aFiy+Pfkii9Ab6bIevAGGEwrEBHtCq4YRrWqM56IJ3aLQzko/lbein+TijG54gvQmSkyOeCFVJEgg+Igy3eHGfzn34YRDl5Ma49MG+T16MsU2QzwOqpIqgCDGBOPwCgU/wq6L5EsplrxdnRlioJ8Vy+rK5UzSfA69uMosUH+1lxwOc2Bhsm/JlW8Gl2ZokQDf1UoQt5s4pupouDn+DupMxgqmVTxavRkiiI94U11bXP7mkcVQwZv5ztY/zYKRXyf/0yqeDs6MkXhkPoe+yPfW5lzC0bVPDKpwhBFkgP+k7fbxLDoyBSlJaBfo1QUaOZp+hvX8ZlFFZlEQVRxv1cTH0I/pijWEd4yT1h0YSlxGyWKIoQcs+jf2aqCoop/xY2UiYHRjynKVYR3KBVl1kLCpfEWdryCEv9cm0JTxbQ/3opuTFHhdniHp6KQzxIX9YYrvsbfRXpCvv4xMR66MUWNWj2syc5QTGevmv4txL+LfA9lvDIxFvoxRYXUv8H8KO7j2w2MSO//LrQnSmyVicHQiymq5OMF5kdFF9/Af9eIOVqUSlGkI/x7KhWvRT+mqDnqDUxRfshFvq/hr9Xg2oOrVYqitv6eSsVr0Ysp6gbS8Yffih6GmeIF+hPisqfKmCjUEP49pz/eiskURaiS79BVjRqZGcKFc/rvCrGvIJeJMTAWU1To9s+iyqgKzH68iSiuEvFqU6KwpWl+vBadmKLS4T88U1QRYOBmRNsB6JF7VyX4PPNToCOqnmjOz1elH/xnmh8vxWSKIlSpAoGbkcyW1T4KA+S6nGqMw3repGyNnN+vSuh3epmzH6/EZIoi1LkhK8p2dliED+tyblMc7zjaRRkOmX/XGBJ/T0fFS9GNKb7ST1E5YVFyM8h92MqT4VhKnvWHAIg6ErUXjEOzfG1o3VETn8fUKUpQeVkFTOGqoyRFNas5Nm8hlowWJbEJrIdOH+M/KrWDOU/6Usy5jxL0YQpVfUxXIFO7WgGVvqiaos/0ltwY4JyP9DW1pm0Ysa72e2GND3uU2U1/wrfC6h1HDeToOan0OEymeCnGYorS5DdFMLJxKoUKLIWVLhhohCfcRAOmODe9i6cqWLgqanCSCitTAYz0my36vaYRs9VuxHesNbnrEZYpVqQebEtqJ+dq/qpmVOv7KeiU4qBUHA3KSqaYkx8vxWBM0THKQLetUuX65Q9V2Q6bd2ofglcjYhcR2Pf9FKEmFAXssrpbB2wugk9LmC4bLUPXGQEl0WyrfotaiG5H8YVmDelOYtoDPVdqWtdMoU6veEYZJ9I5PeXR/3no+WSK38JQK8R6rvtgyjUfrbkMqi8EVhUNU0UDpgg5KrVU76K5XjGF0TQMJ5jOS9trbTqoHZAB0crQxMCbIzcFXqshxEWfeFXXrN8LzhRHBc+P1ZxM8VsYiinur4W4PN485ai/s5HWvEWJYlIcnry5zxQh+wrtgiNTCOayEBvRnNvKCE9JP6lK2IQWdHDGBBkfdJSxdRa8K5LaiDGFP9s7/RS/haHyU9xmiks/B845oiBIOwtAkinMcC1PRxxQ2EHkS3cvgleIwrsP+luQKcAItN6N7SAZZ6zSFj9EdlCtca8oGR94C2CxKgdqG/p9nCk8TKb4LQzFFGXHoGsQ3FvmjyO/IZj/Rn2346oNVkQlw3CHWJbV8gMEZykLgxx28dSOEbA9DDENWhHiYC6srpNofCgtwZEc1zlWHjbhtCTnHyV2pFsgDZEIu6shmAKmqJslnfEUb8Vb82ju1oHxzAktiujJR0+/msLQX+77aAcmSh0Jn50GsNqF9gLuAqe4guIZjgEFer/CJJp7g3uTuxxzWT5CMCIIMsWCxofk8suZggu159PA63VzpEiS5NA0Hg3tqjHejQKmqIu8qlhWNjEC+uXmzh9+afwvqqOhZgoFDqdSLmZYXDCKwPCDmf9Te6CyQbqEi2u2bj7TgF4bIU4KCj9vGf+JxUAxxhVXkA2ALhR/lhTI1whGcUCdAixTAJCsA8ChNdUEGEOKkaQjkr2F/XvTjnkP17OkJ8xo7p/CCPU+wGoC+W3TpKB62vdHfDGCsdovUc608q8nIPU3CabQB9NQLtfABZQyhVw4wlyhhZeCKY+RV0r70Vy3a0maKRRfAJAuYEKozEZz+yRrzUxq6B3t1SgCwGlhfe8o2AqZwjEVs1zCqFshNvPjvRQda4hlKxXKmoeS6RI9nNL8pjAj7camCOxEgFw9T2YGUzilPsgUxeYHcYRRLoI2iFQ2kw26JPcI6RhCmlgqFRulxV4ISYvI1FvTfZrcRf6gzRiqtX9pvS5aG6MITX3vcFp4xRfr6w1fqVsPX7XqfDo034qudUkzJV+uerjNF0IlW5Ie8KORrUdgFAwiAmKKqJ/C9gZDGYMLqkqVitUwBEhLGaer1KO58zz6K8SMRaG/Jw+u29m9de+81tgh9gT+8du2AXufXiHmbsDMZPNT6FnrPFepkNqKL1gRpTyX0jzlWiXf0DanOT/80ukOZ6aw0wqXTBHWKUqVCs0QOvgRcWr0yEh21XmxRzjUWnkDqVXn9gbM7Hg/hZ5MkbtwGqUo+xF3KoGd4Vs36wJkGr4VG/LjX8dTMJ9/nCkKlQpAcoBLTwUcz3Mrk03QD1uEVCYbdwP+U6xU1JDLxBjoyRS5UmU188zh2oVDWOPDuCl2k94bVO1EH8kPvrI4Ry9G0+wTm/vIpz/afcXJirBCsXnqDG2R9QtgRGJuMwOp7HieUvFfRXJfzi0To6ArUxyzOoMHu5mmErOpYjXhE0Ayv2sEek0Ueu/NGuqNOfLpHV/3AcKEHblVVjjFSi6MK5deDv25qzTmkWaKYIPB7JbVaNtaGOQPBfhf//Vf/9f/OfyYMZTWHJsYCH2Zgi/o1iu6hYPy4AOq/uTsy3aBrpKnU9ALpkHg2qlVr7re2DyCc+nrUAuaQjSRBXZ1qZ6CkTRihmM0dVuJbgavFOd3vgImVcZ+hf/zv/7X/xx/zBj+U1TGdGIo9GUKogqT94E/TOZhM9sE0kS+JEmaFLQJWexfJcmCNrvT0UgLkvJT2LwwEtmBzTryI0LXFLlgCF+pMEFQXwD2w21/0ybaFj3yP1OleDE6M8VG6ZyCPIAP2FqgTtQiVnqdCbXbFnnsr+2PxJV+AVekfszIJc5S569Gb6bQYT+R50cnW4qsiWiGwsmE6O5XeW6ikgJWeXkxMi7x+C0pEdr/OWMpXov+OkVSXcjYpQWKqCKxc0hDybrS9mU8nkRG/8934d+oRkzb493ozBR5JODS0/VEiYym9j1TBXzsSml+h3sK8ucjClD1Y/7nX4Ye/jNtj3fj0VnSa1zPNAyK45VlM0DLKwWd95PCv41TkbojhPumCWlAwY/pGEXZHP9RL/+a8x7vRt8YzXyhyH8OB4E3wBaJ/70r1Yk5bIhpTkvaExRYb1J43oIG2I+pJkb/9bf2UUyieDW6rhArejjfRhU6NIPeFl5psdSyFWBRB3GsATx5VuTD+fi6H1PNd+xUof5O0+Pd6JmfolAeHnFWtIQUtEytsOOlEeEZsQrZkF7USPZR5T+mPoVSKQwmUbwcHbPjlQ+cb6MKjCDofaXxqckKQKnfs0Lf04cYlWISxTegWxb/GqlvRBVsbYkMILj2pPpUsmqhRfpKqfxgT0SUFW9jlWEoxf/5z78tUczp0bdjtFrn9bJ7RQxp3KKMSnZLHNbU4Iid52rZaKrsWQbk//x/1vaYEVevRx+mqFYOakYvXK4kgkrDkQP87+whZpVTjaevduCPix9UuR1vwSMmXqaw+sf8P/+fcWcqTOPj7ejDFPXDYRFVAC3ZdOxQcUrHGkKspe6+xldaWSK5BaRddqf6sbLEorVG0N///q9//ec/fxu06OLEB9GFKe5MeOaN0do/sCJFVJ8r1K5ueI3yBfum6ZWCFE+sgLkEuDgI6dLu3PCWwP/IyRDfgh5McatoYMqABzBjf1crHpw9EljgIZhi3vBK5Thxqqaikal8cO8SR7miibvowBTVprvB5TAN1iHxjAmv1YtAjhbJkvPdutJx5UjaFGQ3p6PevSJugqEDU9wMtgwRjXM+Pu3nYyemM4vFlRG61xuTgOeDvokLAGUhg7uifnPUmBgH7Zni9kh5aIBnx7rXcHWHvB5ozVxUxWaeGtYlgcYbd43xoS7zdoj922L0J67QninujyKshfOI/im4KVWbZfu+FFRFVveHJKa4va6suDr8xKhozhQNjG+b/PkzBsc1tHKx2go/94VgzPh1k9h05TUK6yFvVxWYGALNmaKFuil1kV3tuhyGJQikmauShk2udDwA+nHbOCSn+fEdaM8UDZ59WRsx+QCsDb/mVieJtjakHNkVZC0so6lUfAdaM0WTRz8v09xnQKURhbhZANRgSKYgNPoxR77EiVy0Zoo2I8iQSrmB0Cb8zmRff6WtOjf0JU7kojlTtFk3Puw4BDbw69uvdGs1bwHT/PgGNGaKRg/+wPJj11C1MZAGvtIf+DEn8vE4UwSrx5ww/sOV8/znsMnAunn6d8rKxjVeDOpEBRozRfK5V8sVM/JwDyw/iLROrZaGvpwpUjvoKgJJIhj4Eiey8TBTmLIxkKz7Pf7Dle4hyHXJ0Dss4ww3K5z8MVXYhViSs8Xj/5gTaTzNFIYjZOrpGt8LlvH4gyhhivFSkycuESvMi+X9tD+RRmumSD00hiIg9XSN7wVrxxQmdF2sy2AClfIvUND9mrKxxv8xJ9JoyxSpZ4LSMyafruEfrhw3XT5TgF5NMhpT5P0GGUwxXZpfgIeZYrVMkdBsf4opMB/EW5kitd9kim/AZIo6tGMKKYVbnjoSMn+DpM9pMsVX4HGmQNs2MYCOzxQ54RQ5TLFL2ikbhMk4fvkBBQ+KPpS3nLfkPKN48/A/5kQGPsUUr9cpWjGFzgVOOgWt4eQVCVIftsSH6sbyVtVn7DV1im/AtD7q0NJPAZgd541+ilahqhOjY8591KHx3Id46dxHFglMpvgGNGaKH4qnaMkUSokfjynSl5jHAZMpvgEPx2hKjNFMScUvxWiSF7FFDq2WSAs45uhP5TCEwS5sogZPR3Mb8yO5dGr8lGrNo7nfuO7DVI1OZSib0dzfgMfXkqqpuG9YS5rmMuWoFEnxD7SzH9OFNS5ri/hn0/MeWvNLeZ1t8uH4ecf/MSfSaJ6fIrlHVimc8R+uVpk4AnWM94M61N4y2bpkIKLSj7LUp9ZUkV4YnFdmYbilbxMVmDmvKtGqi6dmDLs0pwqq3SHOGoCX4BhLkOgg8+9P6zWRjdZM8QPZJRGdrpQss1Zl+lDarS4RmqAmnyqw8wrRqmDq+N7piQyMmXHXtjKcl8+hT+JqGxydESWdAXIJSRvqdhn0Zk4Ibj85c3NPOAxZ70Or5MrMz1x78BE0ulJprlT/3/h6q8P8kAmwprckfXSYeQv0SptBmOR1sC40sJslN3Z+c0PHCGWkcWddGykVb9APJ9IYkilM2jW9cmpczbVJTVGK0BT6eiWXVC++wnCJsSD0e/2lfifsRokV2F1ravZF+ybd/ITWKVRTeldh9gczUaPaXemUYueYNj/m/TYmPo8xqw2ua+YE3MegFlA1EAFzt+SqpyXUnOrKmMLJqaEDEm81N7IK2qq5Rb9FbtHtKBXBhq/seoQlAEMaUlOwOcCcyJzZnAJ3bGN+zJmP78CQtc7t6sqlSUW/5tCGUYsKxkDzEcIM/JwpuOuRRFpa/4ViC6QBvXEF69kQi9lZbTJtMONj/1YzwiItj5jGwXDHwphCtJj9mMbHl6A5UzQYh5QivQyZ3EVBaxNYCfxuW+hNME7Ga6YgZWIFPsvJlA61A2CqCTxOyzwYFUG6NSWKNFQrCyCZWL4w/HJkigaXeLeFiSHQniluDyIgbb64ZR2slrHO8UKhRvevlGRbkGwHmQKjwvVufKvne7Ax1cgO2vqw9ogjHW18aHcE+jDx7MLxC+0pmlziUL/fRDXaM8XtUYSSw2s3hZr/yKhT9QDAKBOcue5fKU5hWpUhzBSoJWjfhFWzPJ1jdbcIjYmVKSCOKVCl0E1JMj40OaxhpmjyY058ATowxc1hhNLa25kPGsc/yRZmyvao39yc/qAbxSTWYwq6j0Z8jQ4h2XQnUxSYc1UwWsFdpN1VLnYtL0jPTYF2yuqrQ64FAAAVFElEQVQzxd0fMyOcfeId6MAU98IL7SgmVza1Z4bzj+gWevmGFMFn/pYc0ZXCamcv/FlSLan7aXF016ERqFPYyQodEkHTp3BoTZENejQltYlOT019Kxi9w7g4ATz6IX3kjqx3WL4y8SH0YAq483S5Y6UfdwxA65EeowuA1CKoW1fK46tdMKVzWJr1+dIYF0qw9fToKk0Ilo6DMMFRxvqg0C3XmiQ3j9S7Aq39UOqJjp2gBvWECfhMhe/uCPutB2FiLPRgijtaOR+lz8+oldzefAGGJETqTDfkCJhxIa1MHaO5FVPoWCoAY/2gcmX2ELSczOXV1qTgHCB0DkwlQW1r56iZLDFHipUqgrFobr+f5ZhE8UXowhT1T5fPMcFGoDNdlLXf4ErFyk/kVoixeGv9Pe50SKft3gZa483ykwBYa8W+t5wC3usNY7JJFOvEIOjDFLVPV/6zhfLc1Hth1AhRRkK1V+oWwR0Wd5LCUCdlF7mMjVpiThzvL1t1bnvU+8eceAE6MUWl4ln4bJGNIMS9qVTeSrGiUidHbh7lWK0PM8lUShmbvPC2Lsu6rvv1ieQtdpls3OE1P+Ykiu9CL6aoESCoDLNyhLEiZUBa3MEepSXIHFVz9qorZcfIUyCqilGtZT0RWlNnlo+t684WeZn5j+ev+GEmUXwZujFFuQDVEoXXhlmqLvQAioaEcUwy4A6WVu6etPxK2SAtxdpQpqKtVXPhlllPjB8xieLL0I8pSgWoBVF47THX5AHNPKHmHCJV5+h41AvnBMp/zF49mfgMOjLFlkzvzvE+8dFzk3p5/Fp2pYOtZclC0c8DchLF16EnUxQ8Xmr079mTHpC0NH5xEQxpKIdBOrf/gMhJNG7wPtKfSKMrU2xZeey3lz5btN51wXRzuVeqrJWXqhU5bJ57Jybehb5MkffYvPXZgpWl28lSK0AHQCmGeSNZ5P2YYoiVvxOt0ZkpjDUffXKgyMgfCVREC+clIZUFi6500NwbGUj+VnBecDvxHejOFIYrrmfuGj5aNeFKN6ZBVF7gFY0P6kDkatyVWqtlzNx/UUR/zNjlT7wcDzDFph+hwDMELsa4BVTK+uJjzlFG2ZA6XcRB3i8uCSTbLN9LFNulS9Zs/kSHJh7BM0xByx0pfpJiKtuOQOFI5ugRJol+VS+MqSFOhQaOV6oDLrwrNZrIi+Uq9GO+0JaaKMFTTKGA8ZOC1mm0bl8shdaHpHQNVcsa8NhQoYHDlR48NXIduT5BJuwlrn1+zInB8CRTGNTHFKcaFoXqvE3BUFG5w1XxuqYZd6W+A0Wv13o5USBUYZFJEj+B55miG9yiTJ6gATaeisFuVn8ts8hyuXWynxVF4afdyFqo9RLMEmE/gi9iCpJ3bTZjLgZppi4pWxylaNCBAbC65LWlj3vpSOrt/8pw7itMpvgRfBFToMdAh/5gtlrlc9N5JQUmpdR8oZLRrcA1icIlXhXJ6X2lAvjLuyEnU/wGvocp0E2h80+ysp283iaYWhdYKJg5QINuydi5ipWCkBLyFSb++9brTFThi5hixbrhVDHcFrIAsi9AYBZa/fH/b+9sD95WYTDqfbwP+7CP9sk6DUjiI7FjwLxNZD/nR5umjpP33nICQkilKTp3TQaGx1a+0oTOpl8HprgJ1zGFdPkNBzuLyYT024zt9R5atF5aAS9pnG5WitpnZDKwOUu/wDC7gOxAC5cxBU8mQjc9KY4gncBlTcJdMLg1hgQ2x+cUI6bYfM0FCr7AFDfhSqYIE4llzT0t4pRiTaYg7oCT/mmPm2JoKrD5IrJuCupOoAc2uY4p4mEEKnr1ctc9MYNbtUdWGpt+Gdz7GDspcoGVxgbYJL0LlzGFZ1OscQ2ij8jHuMUjGEK7+cUYBqUoZ6TTFEMz7vF6278MNknvwpVMwV3zJA4RD3V68nlOES8L+ZEpUJHnH38epriqKewHWkAblzEFpRadKRMzqEPzIXPLLp+KMiVB+L7Eq7F1xEVNccUfCmxwGVNssPOPOD8tU+fOKcV0UxgebAho3oYrm+IYzxupvYfVJ5vCcKwTAc3bcG9ThEHaX1Nv+pzC7mLfsORAHzc3xVC1jOlxCrsHQOw6DnRyd1OMMD+iafYAiNXPDbqBKfqZbwqr+yJ2J0OgF5iin7EU7I82MFqqAmGK+wBT9IPMKwWmuA8wRT9jprjgqMLi40bAFAPMO0tqmytOk8AOMMUAI4N+pBXir3PBHwnsAVMMMK2STX2FuW9omOJGwBQDjMwPGl7yMavizyzSnHq20YrUmtrAODDFCP2maJqGfGjaFypu/MHAjK1PNtuP1D9ieO+390ePwTsBU4zQv/xoOkq1fwCES25MH5k+NJEO/Yjf3rdu3RgnUW8zKSw+7gRMMcS5zkC77BlI1iWzv8R9VQhs8y35Y2ntj7d5BrgNMMUQvZOK1oMd2zEDLaAx69CpDPEkCFr3Kg6zDfTT1z8FTHErYIox+s50nUtR4v4l8V17uyJu3k7aHHDNUX6DnX4n2jklXVdehsXHrYApxujb/uifC1BsqsrBxtxA9aXVcoxHSi1A0kf8bL6A9He5G4VSo2XZcjVFWmPEkEhszOhiU4T8/mXw4ooJImAfmGKQnmnCQHyBuIVRLCm+02o5jGbSfiYhMskTAG7Q7OUCfaR3y6bwayGgpynkVtJDSbq5rvG+6U19YSqkct8LmGKU9vXHUPUJHsixo1HxTV60MEo9FR8SwODezbklq/Ryji/wy+q1TZLIwy2FABb/kA6uPi5EtFtKckf6UPkD1lOKgYpA8sKea1/fpCpERCNliUAjMMUwrQLoFQUfapfGJOH7f9sU0oc1d3WP4VDRABG3X9TXOhn/izzP84gkgCUbhK+U3vCr9GXTCwtpvERXw4xlYJTSXjpHfbKfDVAstvK75pWWC3hEWv8ImGKctrHRvfTgAICM5+coLYZnYQqeAfBlZSCjXCmEBQn/zSpaWVOmBC35Vhyx8DqJSe8uvshKqUxRDdnne3VWOH/ISmkznePxms5B/BOHi4va6qExnPzwYVG18jwMGWF/AUxxghZVDHzVUlw1SKd2t2MKnRms9NgMJHBnJA1yprulvVFa0siWhQ6vW5ZiwSETlE1TVKObuHNb98/Zlc7hCofJu+aJD0dq+CMg1voXwBRn8EebGjQWowh6SFOG7dWHjuW1Hr/FnGP1VAuEyglINgU5WehwmINHn8tjs5xIpIcvU4qR3du0S0tbDaRlzOd0Do7IlEFVeRm7o/w/YbjY+e8CU5ziYKZLm2vwY56TAZkyuBRYiIRAA9950QbNO6bw5TaJK2Ma/HzOpkiTjLD/oVemd39d0eijcruW3IAP84+1n87hi3QOuaiQlTziH2td83/roc8DPgNTnIO2A3Lp7wZvyyNW/sVXu6QP/qaNpogDm3R5QnnngpIpeFrBexhOpw7VnD//7p83dkuYwnNneL9q9+dsijS4yy0HV47SlMNRnCorsz1IYpB574XjJHU6R5H5IW+qeaQpnzSbYg0XLQvv/lafE0wDpjjLnis+OeT4ptyp3cnXfwo+yKzASyfmMG/3vHwgHmJxzZE6OMuKXXIkdIYgo5ctk0KEz+EacicWT7oe8Qv/BBuZV+WU4nmL54VJISmxw8VtGycDX/I7w9+LsYqF0hKzRlbVkqZzsIFEedkU8t5+SbOj6Bm3LsU0afS/PNgBpjgPd00urRC+OE94Qsazz1+R1YM4VXkOhjC8nKRYad9mH3YKxQT6KIYs9W55Zs6vSp+S5xZ8Q80NdfVLcjZ3Hc90RXCU91h598Z5z4kewT78N+FhETqVHzavoSQ/RNM5vK6zsinchim8/Dx6zzIIDOYAU8wgpgVEXRBXfHAnd+r8UqpHI3RVpE7i/OUfXh6mR27xWxsTlLq+x9tQelT/mtcaKTz7clSsCB3IcikMZremKZGugzjuwnGFIp2jSPxK6RykIRXZejk2RRHwgCnmA1NMghUhnE4VdPVCm4fqaKJAXWuifNoVsYFPyGX5nEj96dKZVPnYGmOUoZ2zPcKCxOviI+/n5sQv8UEZUfVy4bsp1mL1oU85vSVMMRmYYiaz8ol56V3ciaODg/OU7W9Yz6lK6+q2Mp9eL65qXr1s/focHpDUhmLV8JIMrlmWdZgipZr5uLkjakvpHPGyzxFNfUrXSzDFbGCKH4TixLpKWSA/LKHyhEeBhDPL3cVPNynM9ZrZ5F4CiTyEdS5QJIO7Jb1XNoVkiKaTaY804DVNlf87fN4l1aew+vgrYIofRE+bz8lK/rwJM6Cfl1OkaXGTFx/hN118+JwsUZ5vS6bQicjK6RyvYYo8N+H7FIfU5O2qrE0J6MAU04EpfpcfTTV8nVKkMEU6pZrmCPzXKbGDTVGncyS9LJzOwYkc4VfN/NAblUsSPQjyEKHIfEuXRYRd0unAFD/Mb5aAeP1UReImp5Ty/odOJThvw2tJDKLtdA6v6Rye91fpLZ2D8t1JT7xxfZ74zvFhpSwwE5jil/nJo05vJbrzsIxVdHz19S6JHbLHknM85OkiZ4RHfDRKyiaVC9PdNR4qx+z5mQfv4+SdaWRz/wEwBejjbaJTHg/bjLoWsdiq8Ixz+kddnqREDsq/FtLJN6LXZ6pdpx9dttkGpgBdvB3prsvwdtworjEqJezRGdrFqfO/AKYAXdS5FPHUyWg62CLZHIfbtH2ZJBDFnwBT9PD+73Vzsv14lKcn9en8RDxxkWfclniZ2Lt1dFxysfDoiuMbdBW8s/cf1QQwRTvvgbKN0JkemHZU/2UM9kmjjZDvJCckGobAT/3D9/VSY7QAR74BxrURYIp23s9PbDxTVHLLiQb5eKXUeSQvmUcNqvilyfRv7tuC/wBM0cH799/bMz7Vj3pUOYk5EVEzjxat13D4rj8Uyf8la4H/CkwxFRnVooiceZyKLOTTUmKRhkKbQ7U4/wRMKe4LTNEObe3i66/8UHILZGlBqeylZiwWdS47Eo9/pSz9L81uwH8GpmhFq9HGOIOXxn6x/mM4tS2FL9dq6pBN4ZIpcr6h3He7eET91j/yVf4rxgJfAKZoRg4bSBO/fAoqHIZ82iOeSqhPRucDk2syRVyPhNPV6YzCRgn7t7f+iRH6K8IC3wCmaEYLPebaCckXIQEp9hpOJ6PfTKEFm7hphVsXrQ7nd0rY/xzIaLo1MEUzVfMNqdAk1RRirXn3Vm1ld07xiMVqUv0GG1/VWHvcGpiimegCX7rAac9fffxuir04RQ5uWjEF1h73BqZoRlygNWW1dyj3ytOunlXNR0q7pO97H3mb1IYpsPa4OTBFK1xbSWYLxeKjDF+8CKHKp3g8HmU+RSrr0Bqn6Dr7MB+sPW4OTNEK5WmEekF78j0euaCbXht+K6rBFTmagk8RzcYv66+O1S97CnwdmKIVPblB6WAY13dzeqIjVoosaz6SduWil3MfXLZJBNGQT8F8c/6PIMXtgSlaSf3CScslcONdaae5VM2GKdRq0/7D/Fs6S+pjS9Fczr55k/SLwxVBitsDUzSix0Zj4w15qqgxkerIap1Z0k5iOm9P9Smo6jLmW6cUjy8eAEGQAsAUjTR+9/d+7/cdpfhSribWHgCmaCIGLttGS1/oz8TeI0QBYIomQgSz+bu/SxUmRGHhQ4K/BqZogIpeEg1X99R8HPk4/xeIAgRgihYmtTA3CaKZIABTWOM/50BBFCACU1jj/64GkJsJGJjCHP9z8GLbAwgwhT3+34IAhTOBAlPY47+tPyAKkIApDPKf1h8QBcjAFGAHJFKAApjiWpBy/k7YHwUFMMVliO3VS07pAqIAFTDFNaCsh0j64/j9IApQAFNYpZgxxDZm/nXJEX3hxqKS5CAKUAFTWCWXtQk62BvXJJW3+sCuB3gFprCKbk3QkQoOL9h4BUQBXoApzBJV0aSBzrUERAHegSnsEsKWbYOafIcrvlatE/wyMIVdemIQzdMKgijAFjCFXboWFY3bntgdBdvAFGbpzJZocgBEAXaAKazSGKLINKwrTqRqgYsDUxhlJJxw9Bp4AuwCU9hkrBjVR1Vg5QE+AFOYZDTl4YMqkEUBPgFTWGR8VO+pApuj4DMwhUHO1JjZdgxWHuAAmMIgZ4Z1MR1JZ09DsufZzwQuDkxhj3NlNJNm0pERTCjAMTCFOU7Wt0wv9+vq+c8QBTgEpjDH2crc8npal+U5qeg5OwZuDExhjfMls+MNyC1PPtTAAaAEprDG+QaAcVLhgyiWFZFM0AZMYY0J2xTPW4S1RwCmAG3AFMaY0VP4eQ/HoljWCR8J3AGYwhhTMh+ckykFJhWgEZjCGFNOZ/g1gEkFaAemsAW5OXeJvYNcAHsfoAWYwhZ+iikeyQ8TGpiCWwBT2OJ48UEtmVk4YQ46gSlssR4WuHPruh6XwZszNQH3AaawxVEA0jvv/VMVB5cRApmgD5jCFEcBTV55PFVxNKmAKUAfMIUpjlYNJIe/Dk2BLQ/QB0xhira8KzpcfSCkCTqBKUzRNMBbamLCFKAPmMIULYsGcsd7H3OSwsGNgClM0WAK8lyi5jMwBegDpjBFiykopFQciQCmAH3AFKZo27IgtxyFNGEK0AdMYYrGQOTx5gdMAfqAKUzROMCPTYG9D9AHTGGKZlMcXYfMK9AHTGGKw/IUnKR5nFBxmMQJQAVMYYqjk13PZYenlp5gOPcB+oApbHFkCrc61yCKOaWzwI2AKWxxuKygpipW2PoAncAUtpg0xBHQBJ3AFLaYVnF3xm3AjYApbDFnjCNMAXqBKYwxpzMQwhSgE5jCGJO6DU74JOBWwBTGoCkdjGEK0AlMYY3zw3yGbMDdgCms0dL45zOYUoB+YApznB3omFKAAWAKc5ydVGBKAQaAKexxbqifX72AOwJT2OPc8gFTCjACTGGQM/kQDb1AAHgHprDI+HBH0hUYA6YwyVF/0j0IedxgDJjCJmOzCogCjAJTGMUNBCaRSQGGgSmM0lIs8/xLABBgCqt0j3uIApwApjBL58j3EAU4AUxhF/IdAcqeawF4A6awDLXGNckhjwKcAqYwDbXtlmJCAc4CUxjneLZAmFCA88AU5vGhweDu3z5nHZhQgPPAFPYhH/Y1NmxB8W+w5QEmAFNcAVVCjTz37Q8HLgFMcRFEDDXQBJgFTHEh8mwi/vrtjwOuBEwBADgGpgAAHANTAACOgSkAAMfAFACAY/4BAsyIB3i/FQQAAAAASUVORK5CYII=;" vertex="1" parent="1">
          <mxGeometry x="-686.61" y="-1054.87" width="722.68" height="513" as="geometry" />
        </mxCell>
        <mxCell id="sxLbU0wNFSw0PBxlbZjx-129" value="" style="edgeStyle=orthogonalEdgeStyle;rounded=0;orthogonalLoop=1;jettySize=auto;html=1;startArrow=async;startFill=1;strokeColor=#FAFAFA;opacity=20;" parent="1" edge="1">
          <mxGeometry relative="1" as="geometry">
            <mxPoint x="-218" y="1001.63" as="targetPoint" />
            <mxPoint x="700.5200000000004" y="520" as="sourcePoint" />
          </mxGeometry>
        </mxCell>
        <mxCell id="sxLbU0wNFSw0PBxlbZjx-11" value="" style="endArrow=open;endFill=1;endSize=12;html=1;strokeWidth=3;" parent="1" edge="1">
          <mxGeometry width="160" relative="1" as="geometry">
            <mxPoint x="125.88" y="-835" as="sourcePoint" />
            <mxPoint x="299.88" y="-835" as="targetPoint" />
          </mxGeometry>
        </mxCell>
        <mxCell id="sxLbU0wNFSw0PBxlbZjx-13" value="2" style="ellipse;fillColor=#ffffff;strokeColor=#000000;fontSize=18;" parent="1" vertex="1">
          <mxGeometry x="149.88" y="-865" width="20" height="25" as="geometry" />
        </mxCell>
        <mxCell id="sxLbU0wNFSw0PBxlbZjx-14" value="&lt;b&gt;&lt;font style=&quot;font-size: 15px&quot;&gt;Self-Adaptive System&lt;br&gt;&lt;/font&gt;&lt;/b&gt;" style="shape=cube;whiteSpace=wrap;html=1;boundedLbl=1;backgroundOutline=1;darkOpacity=0.05;darkOpacity2=0.1;" parent="1" vertex="1">
          <mxGeometry x="299.88" y="-900" width="130" height="110" as="geometry" />
        </mxCell>
        <mxCell id="sxLbU0wNFSw0PBxlbZjx-18" value="&lt;b&gt;&lt;font style=&quot;font-size: 15px&quot;&gt;Traces&lt;/font&gt;&lt;/b&gt;" style="shape=cylinder3;whiteSpace=wrap;html=1;boundedLbl=1;backgroundOutline=1;size=15;" parent="1" vertex="1">
          <mxGeometry x="579.88" y="-875" width="60" height="80" as="geometry" />
        </mxCell>
        <mxCell id="sxLbU0wNFSw0PBxlbZjx-19" value="" style="endArrow=open;endFill=1;endSize=12;html=1;strokeWidth=3;exitX=0;exitY=0;exitDx=130;exitDy=65;exitPerimeter=0;entryX=0;entryY=0.5;entryDx=0;entryDy=0;entryPerimeter=0;" parent="1" source="sxLbU0wNFSw0PBxlbZjx-14" target="sxLbU0wNFSw0PBxlbZjx-18" edge="1">
          <mxGeometry width="160" relative="1" as="geometry">
            <mxPoint x="439.88" y="-834.25" as="sourcePoint" />
            <mxPoint x="559.88" y="-834.25" as="targetPoint" />
          </mxGeometry>
        </mxCell>
        <mxCell id="sxLbU0wNFSw0PBxlbZjx-20" value="p2.merged(p1)" style="text;html=1;align=center;verticalAlign=middle;resizable=0;points=[];autosize=1;" parent="1" vertex="1">
          <mxGeometry x="465.93" y="-864.25" width="90" height="20" as="geometry" />
        </mxCell>
        <mxCell id="sxLbU0wNFSw0PBxlbZjx-21" value="3" style="ellipse;fillColor=#ffffff;strokeColor=#000000;fontSize=18;" parent="1" vertex="1">
          <mxGeometry x="439.88" y="-866.75" width="20" height="25" as="geometry" />
        </mxCell>
        <mxCell id="sxLbU0wNFSw0PBxlbZjx-23" value="&lt;div&gt;\&lt;/div&gt;" style="text;html=1;align=center;verticalAlign=middle;resizable=0;points=[];autosize=1;" parent="1" vertex="1">
          <mxGeometry x="-485" y="-808.37" width="20" height="20" as="geometry" />
        </mxCell>
        <mxCell id="sxLbU0wNFSw0PBxlbZjx-37" value="" style="endArrow=open;endFill=1;endSize=12;html=1;strokeWidth=3;exitX=0;exitY=1;exitDx=0;exitDy=-15;exitPerimeter=0;entryX=0.89;entryY=0.888;entryDx=0;entryDy=0;entryPerimeter=0;" parent="1" source="sxLbU0wNFSw0PBxlbZjx-18" edge="1">
          <mxGeometry width="160" relative="1" as="geometry">
            <mxPoint x="471.92999999999995" y="-745" as="sourcePoint" />
            <mxPoint x="128.88" y="-803.9599999999999" as="targetPoint" />
            <Array as="points">
              <mxPoint x="469.88" y="-765" />
              <mxPoint x="229.88" y="-765" />
            </Array>
          </mxGeometry>
        </mxCell>
        <mxCell id="sxLbU0wNFSw0PBxlbZjx-38" value="&lt;font style=&quot;font-size: 14px&quot;&gt;Retrieve&lt;/font&gt;" style="text;html=1;align=center;verticalAlign=middle;resizable=0;points=[];autosize=1;" parent="1" vertex="1">
          <mxGeometry x="324.88" y="-755" width="70" height="20" as="geometry" />
        </mxCell>
        <mxCell id="sxLbU0wNFSw0PBxlbZjx-39" value="4" style="ellipse;fillColor=#ffffff;strokeColor=#000000;fontSize=18;" parent="1" vertex="1">
          <mxGeometry x="299.88" y="-757.5" width="20" height="25" as="geometry" />
        </mxCell>
        <mxCell id="HfbvIJwxYoeoFV3w_FML-22" value="&lt;b&gt;&lt;font style=&quot;font-size: 17px&quot;&gt;Test Generator&lt;/font&gt;&lt;/b&gt;" style="text;html=1;align=center;verticalAlign=middle;resizable=0;points=[];autosize=1;" parent="1" vertex="1">
          <mxGeometry x="-390.00000000000006" y="-1090" width="140" height="20" as="geometry" />
        </mxCell>
        <mxCell id="HfbvIJwxYoeoFV3w_FML-35" value="1" style="ellipse;fillColor=#ffffff;strokeColor=#000000;fontSize=18;" parent="1" vertex="1">
          <mxGeometry x="-789.9999999999999" y="-712.5" width="20" height="25" as="geometry" />
        </mxCell>
        <mxCell id="HfbvIJwxYoeoFV3w_FML-39" value="&lt;font style=&quot;font-size: 14px&quot;&gt;pick() and send() : &lt;/font&gt;&lt;font style=&quot;font-size: 14px&quot;&gt;δ&lt;/font&gt;" style="text;html=1;align=center;verticalAlign=middle;resizable=0;points=[];autosize=1;" parent="1" vertex="1">
          <mxGeometry x="163.88" y="-864.25" width="140" height="20" as="geometry" />
        </mxCell>
        <mxCell id="HfbvIJwxYoeoFV3w_FML-47" value="&lt;font style=&quot;font-size: 14px&quot;&gt;state &lt;font style=&quot;font-size: 14px&quot;&gt;update(p2)&lt;/font&gt;&lt;/font&gt;" style="text;html=1;align=center;verticalAlign=middle;resizable=0;points=[];autosize=1;" parent="1" vertex="1">
          <mxGeometry x="49.879999999999995" y="-1037.5" width="120" height="20" as="geometry" />
        </mxCell>
        <mxCell id="HfbvIJwxYoeoFV3w_FML-48" value="5" style="ellipse;fillColor=#ffffff;strokeColor=#000000;fontSize=18;" parent="1" vertex="1">
          <mxGeometry x="36.069999999999936" y="-1042.5" width="20" height="25" as="geometry" />
        </mxCell>
        <mxCell id="HfbvIJwxYoeoFV3w_FML-34" value="&lt;font style=&quot;font-size: 14px&quot;&gt;selectComponent(): v5&lt;/font&gt;" style="text;html=1;align=center;verticalAlign=middle;resizable=0;points=[];autosize=1;" parent="1" vertex="1">
          <mxGeometry x="-780" y="-710" width="160" height="20" as="geometry" />
        </mxCell>
        <mxCell id="HfbvIJwxYoeoFV3w_FML-33" value="" style="endArrow=open;endFill=1;endSize=12;html=1;strokeWidth=3;" parent="1" edge="1">
          <mxGeometry width="160" relative="1" as="geometry">
            <mxPoint x="-640" y="-680" as="sourcePoint" />
            <mxPoint x="-790" y="-680" as="targetPoint" />
          </mxGeometry>
        </mxCell>
        <mxCell id="HfbvIJwxYoeoFV3w_FML-38" value="" style="endArrow=open;endFill=1;endSize=12;html=1;strokeWidth=3;opacity=20;" parent="1" edge="1">
          <mxGeometry width="160" relative="1" as="geometry">
            <mxPoint x="-790" y="-650" as="sourcePoint" />
            <mxPoint x="-640" y="-650" as="targetPoint" />
          </mxGeometry>
        </mxCell>
        <mxCell id="HfbvIJwxYoeoFV3w_FML-46" value="" style="endArrow=open;endFill=1;endSize=12;html=1;strokeWidth=3;opacity=20;" parent="1" edge="1">
          <mxGeometry width="160" relative="1" as="geometry">
            <mxPoint x="10.120000000000005" y="-980" as="sourcePoint" />
            <mxPoint x="130" y="-980" as="targetPoint" />
          </mxGeometry>
        </mxCell>
        <mxCell id="HfbvIJwxYoeoFV3w_FML-45" value="" style="endArrow=open;endFill=1;endSize=12;html=1;strokeWidth=3;exitX=0.985;exitY=0.175;exitDx=0;exitDy=0;exitPerimeter=0;" parent="1" edge="1">
          <mxGeometry width="160" relative="1" as="geometry">
            <mxPoint x="129.99999999999994" y="-1009" as="sourcePoint" />
            <mxPoint x="14.570000000000004" y="-1010" as="targetPoint" />
          </mxGeometry>
        </mxCell>
      </root>
    </mxGraphModel>
  </diagram>
</mxfile>
